<?xml version="1.0" standalone="no"?>
<!DOCTYPE svg PUBLIC "-//W3C//DTD SVG 20010904//EN"
 "http://www.w3.org/TR/2001/REC-SVG-20010904/DTD/svg10.dtd">
<svg version="1.0" xmlns="http://www.w3.org/2000/svg"
 width="1024.000000pt" height="1024.000000pt" viewBox="0 0 1024.000000 1024.000000"
 preserveAspectRatio="xMidYMid meet">
<metadata>
Created by potrace 1.16, written by Peter Selinger 2001-2019
</metadata>
<g transform="translate(0.000000,1024.000000) scale(0.100000,-0.100000)"
fill="#000000" stroke="none">
<path d="M0 8659 l0 -1580 23 7 c21 6 50 19 147 62 53 24 273 116 345 144 27
11 54 23 60 26 5 4 12 7 15 8 9 1 162 65 210 86 14 6 29 11 34 9 4 -1 13 3 20
8 6 5 38 19 71 31 65 23 129 49 213 86 29 13 56 24 60 24 4 1 25 9 47 20 22
11 45 19 51 20 6 0 23 9 38 21 14 11 26 18 26 14 0 -3 11 2 24 10 13 9 28 15
32 14 5 -2 26 5 48 14 21 9 44 17 50 17 7 0 16 4 21 9 6 5 28 14 50 21 22 7
60 23 85 36 25 13 53 24 63 24 14 0 17 5 13 16 -5 14 -4 15 8 5 14 -12 46 -5
46 10 0 5 3 8 8 7 14 -4 72 21 72 31 0 6 -4 11 -9 11 -5 0 -12 8 -15 17 -6 16
-6 16 12 0 10 -9 22 -14 27 -10 4 5 5 2 0 -6 -5 -9 -3 -12 6 -9 8 3 13 10 12
16 -1 5 8 8 20 5 19 -4 20 -3 7 9 -8 7 -21 20 -27 29 -10 13 -10 16 2 16 8 0
12 -4 9 -8 -2 -4 1 -11 8 -16 19 -11 50 -14 44 -4 -3 5 1 12 10 15 12 4 15 2
10 -9 -7 -19 1 -19 20 -1 16 16 19 51 4 41 -6 -4 -8 -11 -5 -16 4 -5 1 -9 -4
-9 -6 0 -11 6 -11 14 0 8 -5 18 -11 22 -8 4 -9 -1 -4 -16 4 -14 3 -20 -3 -16
-5 3 -12 15 -15 26 -3 11 -1 18 4 14 5 -3 9 0 9 7 0 7 8 5 20 -6 29 -26 25 -3
-5 25 -13 12 -22 26 -20 31 3 4 0 10 -5 12 -6 3 -5 4 2 3 7 -2 13 -7 13 -12 0
-21 16 -31 42 -28 18 2 37 -5 52 -19 l24 -22 -14 22 c-10 16 -10 25 -1 35 9
11 7 18 -8 31 -11 9 -20 21 -20 27 0 14 6 13 25 -7 9 -9 20 -12 23 -7 9 12 44
15 36 3 -3 -5 6 -8 20 -7 13 1 22 6 20 10 -3 5 -10 6 -15 3 -5 -3 -6 1 -3 9 7
19 0 20 -27 6 -23 -13 -27 4 -5 25 10 10 16 11 25 2 8 -8 11 -8 11 1 0 7 -5
12 -12 12 -9 0 -9 3 0 12 16 16 32 -5 25 -33 -6 -23 14 -25 41 -4 10 8 24 12
30 9 6 -3 1 3 -11 12 -13 9 -23 20 -23 24 0 11 45 6 45 -5 1 -15 24 -52 25
-38 0 6 -5 15 -11 18 -7 5 -4 14 8 28 10 11 13 17 6 14 -6 -4 -14 -3 -18 3 -4
6 -11 8 -16 5 -5 -4 -17 -8 -26 -10 -10 -2 -27 -7 -38 -11 -17 -7 -18 -6 -7 8
10 13 10 17 -3 21 -8 4 -14 3 -12 -1 1 -4 -1 -8 -5 -9 -5 -2 -7 -2 -6 0 2 1
-5 13 -15 27 -22 32 -22 36 8 36 16 0 25 -6 25 -15 0 -14 2 -14 10 -1 6 10 4
20 -6 31 -8 8 -11 19 -7 22 3 4 1 7 -6 7 -7 0 -11 -6 -8 -14 3 -8 -1 -17 -9
-20 -12 -5 -14 -1 -10 17 3 12 3 16 0 9 -3 -6 -10 -9 -15 -6 -6 3 -5 11 2 20
11 14 2 20 -24 15 -5 -1 -7 4 -4 11 2 7 10 12 16 10 7 -1 10 2 6 8 -9 15 1 12
37 -10 25 -15 28 -20 14 -20 -30 0 -10 -13 23 -15 19 -1 28 2 24 11 -2 6 0 15
6 19 6 3 11 11 11 18 0 6 -7 2 -15 -11 -13 -18 -19 -20 -35 -10 -10 7 -17 16
-14 20 3 4 -3 5 -13 1 -16 -6 -17 -5 -3 13 14 18 14 18 -2 5 -10 -7 -18 -9
-18 -3 0 10 -47 27 -64 23 -5 -1 -4 5 3 13 7 8 20 12 28 9 10 -4 14 -2 10 3
-4 7 6 9 25 6 18 -3 28 -1 25 5 -3 5 -2 15 3 23 7 11 11 11 24 1 20 -17 50 -6
42 14 -6 18 5 20 21 4 8 -8 13 -7 18 2 5 7 4 10 -2 6 -6 -4 -16 -1 -22 7 -9
11 -6 13 14 12 14 0 26 4 27 9 1 6 8 16 15 23 7 8 11 18 8 23 -4 5 1 6 10 3 8
-4 22 -1 30 6 13 11 18 10 30 -6 13 -19 13 -18 12 1 -2 16 3 19 23 17 24 -3
24 -2 5 13 -11 9 -15 14 -8 11 6 -4 14 -2 18 4 3 6 22 17 41 25 19 8 34 19 34
24 0 6 5 11 11 11 5 0 7 -5 3 -11 -4 -8 0 -8 15 0 12 7 26 9 31 6 5 -3 16 8
25 25 15 29 35 40 35 19 0 -5 -5 -7 -12 -3 -7 5 -8 3 -3 -6 5 -9 14 -4 32 16
13 16 22 23 18 17 -3 -7 -1 -13 4 -13 6 0 11 5 11 10 0 6 5 10 11 10 5 0 8 -4
5 -9 -4 -5 5 -4 18 2 14 7 24 14 24 17 -2 28 3 32 18 14 8 -10 13 -13 9 -6 -6
12 11 16 45 13 12 -2 13 0 1 7 -17 12 -6 33 13 26 8 -3 16 2 19 13 4 16 5 16
6 1 0 -10 5 -18 10 -18 14 0 32 26 23 34 -4 4 0 6 8 4 8 -1 14 3 12 10 -2 10
2 10 16 3 21 -11 42 2 42 26 0 7 5 13 11 13 5 0 7 -5 3 -12 -4 -6 10 -1 31 12
21 13 36 19 32 13 -4 -6 -1 -13 7 -16 10 -4 12 0 8 16 -5 20 -4 21 13 7 11 -9
16 -10 11 -2 -4 7 -1 12 9 12 9 0 13 5 10 10 -3 6 1 10 10 10 9 0 14 -4 11 -8
-3 -5 1 -9 9 -9 11 0 12 4 4 14 -9 9 -7 14 5 19 9 3 13 11 9 17 -3 6 -1 7 6 3
7 -5 9 -13 4 -20 -4 -7 2 -1 13 12 21 23 22 24 34 6 10 -16 11 -16 6 -1 -4 13
0 17 19 17 18 0 23 4 18 16 -5 14 -3 15 17 4 20 -11 22 -10 16 5 -5 15 -4 16
8 6 12 -10 17 -9 27 8 10 15 17 17 31 10 10 -5 18 -6 18 -1 0 5 11 15 25 22
13 7 22 17 19 21 -2 4 0 10 6 14 5 3 10 1 10 -6 0 -7 10 -1 22 12 13 15 19 18
15 7 -3 -9 0 -19 8 -22 9 -3 12 2 9 18 -2 15 1 23 12 23 8 0 13 -6 10 -14 -3
-8 -1 -11 4 -8 6 3 10 13 10 21 0 8 6 13 13 11 6 -1 11 4 9 11 -2 10 2 10 19
1 15 -8 19 -8 15 0 -6 10 0 13 21 10 3 0 10 7 15 16 8 13 12 14 26 3 9 -7 13
-8 10 -3 -4 6 4 15 18 22 22 10 23 10 13 -11 -9 -18 -8 -18 9 3 12 15 24 21
32 16 8 -5 11 -4 7 2 -8 13 79 57 98 49 8 -3 15 -1 15 3 0 5 -4 11 -9 13 -4 2
7 10 25 19 18 9 31 13 29 9 -3 -5 6 -3 20 3 14 7 25 16 25 21 0 5 8 2 17 -5
11 -10 14 -10 9 -1 -4 7 -2 12 6 12 10 0 10 2 1 8 -8 5 2 8 24 9 21 1 40 7 45
17 5 9 15 13 25 9 12 -5 14 -3 8 8 -7 11 -5 11 10 -1 11 -9 16 -10 11 -2 -4 7
-2 12 4 12 6 0 8 4 5 10 -4 6 1 7 11 3 11 -4 23 2 36 18 11 13 17 19 14 12 -4
-6 -2 -14 4 -18 9 -6 14 8 11 28 -1 5 3 6 9 2 6 -4 18 -1 26 6 8 6 17 9 20 6
4 -3 15 2 26 13 11 10 31 17 44 15 19 -2 24 1 19 14 -3 8 -3 12 1 8 4 -4 14
-1 22 6 13 10 15 9 8 -3 -4 -9 -2 -8 7 2 8 10 16 15 19 13 3 -3 13 4 23 15 10
11 22 20 27 20 5 0 18 9 30 20 12 10 26 17 31 13 6 -3 7 -1 3 5 -4 8 0 12 11
12 14 0 15 2 5 9 -10 6 -8 10 10 16 12 4 26 7 31 6 6 -1 11 14 8 31 0 4 7 4
16 1 11 -4 14 -3 9 5 -7 11 6 17 27 13 5 -1 6 3 2 8 -8 14 16 51 33 51 7 0 10
5 7 10 -3 6 -2 10 3 10 10 0 42 64 42 86 0 8 6 17 14 20 8 3 12 12 9 20 -3 8
-1 20 4 27 5 6 11 32 12 57 1 25 3 56 5 70 2 14 0 34 -4 45 -6 17 -8 16 -26
-10 -34 -49 -106 -125 -120 -125 -7 0 -14 -3 -16 -7 -7 -16 -157 -94 -258
-133 -180 -72 -332 -134 -370 -152 -25 -11 -49 -21 -55 -22 -5 -1 -30 -11 -55
-22 -53 -25 -128 -56 -400 -164 -30 -12 -66 -28 -80 -35 -34 -19 -244 -109
-365 -156 -55 -22 -114 -46 -131 -54 -16 -8 -93 -39 -170 -69 -76 -30 -165
-66 -197 -80 -31 -14 -59 -25 -61 -23 -1 1 -10 -4 -19 -11 -10 -9 -17 -10 -22
-2 -9 14 4 32 17 24 7 -4 8 -2 4 5 -10 16 -39 -7 -32 -25 3 -7 -2 -15 -10 -18
-21 -8 -24 -8 -24 5 0 5 4 8 8 5 5 -3 9 0 9 7 0 7 -11 13 -25 14 -17 1 -21 -2
-13 -10 6 -6 10 -20 10 -32 -1 -17 -2 -17 -6 -2 -2 9 -9 14 -15 11 -6 -4 -8
-2 -4 4 8 14 -11 25 -26 15 -7 -4 -22 -9 -33 -10 -19 -3 -19 -2 -2 11 24 18
21 29 -4 16 -11 -7 -18 -18 -15 -25 3 -8 1 -17 -4 -20 -6 -4 -10 -11 -10 -17
0 -7 9 -2 21 11 12 12 24 19 27 16 4 -4 -3 -14 -14 -23 -12 -9 -24 -24 -27
-32 -4 -12 -6 -11 -6 3 -1 9 -6 17 -12 17 -5 0 -7 5 -3 11 4 7 1 10 -6 7 -7
-2 -14 -12 -16 -22 -2 -13 2 -16 14 -11 13 5 14 3 6 -5 -9 -9 -17 -9 -32 -1
-24 13 -35 14 -29 4 3 -5 -5 -8 -18 -8 -17 0 -21 3 -14 12 6 6 24 10 42 8 29
-4 30 -3 14 9 -12 9 -14 16 -8 21 6 3 11 1 11 -5 0 -6 4 -9 9 -6 5 3 7 15 4
26 -3 11 -9 18 -12 15 -4 -2 -8 2 -8 10 0 10 4 12 12 5 7 -5 15 -7 19 -3 4 4
4 0 1 -8 -7 -19 20 -45 30 -29 3 5 3 10 -2 10 -4 0 -9 12 -9 28 -1 15 1 21 3
15 9 -24 23 -13 19 13 -3 14 -1 36 4 49 6 16 5 25 -3 28 -7 2 -4 3 5 2 9 -2
25 6 34 16 9 10 12 19 6 19 -6 0 -14 -5 -17 -10 -4 -6 -11 -8 -16 -4 -5 3 -7
10 -4 15 4 5 2 9 -4 9 -5 0 -15 -8 -20 -17 -6 -10 -11 -14 -11 -9 0 5 7 18 17
28 11 12 12 18 4 18 -9 0 -8 5 3 15 18 18 33 20 18 2 -7 -8 -7 -18 -2 -27 9
-14 11 -13 14 9 0 5 4 13 8 17 4 3 6 -2 3 -14 -4 -22 8 -23 40 -4 17 9 17 11
3 12 -9 0 -19 -6 -22 -12 -3 -7 -4 -4 -3 7 1 11 7 23 12 27 6 5 6 8 -2 8 -18
0 -8 33 13 41 15 6 16 8 3 8 -23 1 -32 28 -12 35 11 5 14 2 9 -11 -4 -10 -4
-14 -1 -11 4 4 17 3 29 -2 19 -7 22 -5 22 13 -1 13 4 21 12 19 9 -2 9 5 -3 28
-14 27 -14 30 0 30 13 0 14 2 3 14 -11 12 -14 11 -19 -3 -3 -9 -4 -22 -2 -28
3 -7 0 -13 -7 -13 -6 0 -8 5 -5 10 3 6 1 10 -5 10 -7 0 -10 -7 -6 -15 3 -8 2
-15 -3 -15 -12 0 -20 46 -10 62 7 10 9 9 9 -4 0 -10 5 -18 10 -18 12 0 9 22
-5 32 -15 11 -37 10 -30 -2 7 -12 -2 -12 -30 -1 -16 7 -15 9 12 14 45 9 34 42
-23 67 -48 22 -60 35 -43 46 8 4 9 3 5 -5 -11 -17 22 -25 42 -10 16 13 16 13
2 -5 -14 -18 -13 -19 3 -13 11 4 16 3 12 -3 -3 -6 0 -10 9 -10 16 0 16 21 -2
42 -9 12 -9 15 3 15 8 0 12 -4 9 -8 -2 -4 0 -10 5 -13 5 -4 13 -2 16 4 9 15
-15 42 -31 36 -8 -3 -11 0 -8 9 3 8 11 12 18 9 6 -2 12 5 13 16 1 12 -2 18 -9
14 -7 -4 -8 -2 -4 4 12 20 29 13 23 -8 -3 -12 -1 -20 6 -19 24 3 37 -1 37 -12
0 -5 -4 -7 -10 -4 -5 3 -10 4 -10 1 0 -3 11 -11 25 -18 16 -9 22 -17 16 -26
-7 -11 -11 -10 -24 3 -9 9 -21 24 -26 33 -5 9 -13 14 -16 10 -9 -9 26 -56 48
-63 18 -7 24 -25 7 -25 -5 0 -10 5 -10 11 0 5 -4 8 -9 5 -5 -3 -12 1 -15 10
-3 8 -11 12 -16 9 -7 -4 -3 -14 10 -25 13 -11 17 -21 10 -25 -13 -8 -32 3 -25
15 3 5 1 11 -4 14 -12 8 -7 -34 8 -62 7 -12 16 -20 21 -17 4 3 16 -3 26 -12
17 -17 18 -17 11 0 -7 20 24 37 56 31 16 -3 17 -1 6 12 -6 8 -14 12 -17 9 -3
-3 -12 4 -19 15 -12 17 -12 22 0 35 8 8 17 12 19 10 3 -3 4 5 4 18 -1 13 4 21
12 19 8 -1 11 2 8 7 -3 5 1 12 10 15 9 3 14 12 11 20 -3 7 0 20 6 27 10 11 9
11 -5 0 -9 -7 -15 -18 -12 -26 3 -7 -3 -16 -14 -20 -11 -3 -25 -20 -31 -37
-15 -43 -23 -31 -10 15 7 25 14 35 22 31 7 -4 9 -3 4 1 -4 5 3 20 15 34 13 14
16 20 7 13 -9 -6 -20 -8 -24 -4 -5 4 -5 2 -2 -4 4 -7 1 -17 -6 -22 -10 -9 -13
-4 -12 18 0 16 4 32 8 36 12 13 8 34 -8 34 -8 0 -15 -5 -15 -11 0 -5 -4 -7
-10 -4 -6 4 -9 -3 -7 -15 2 -18 -4 -23 -30 -25 -23 -2 -30 1 -26 11 3 8 0 14
-6 14 -6 0 -8 6 -5 14 3 7 -2 16 -11 20 -9 3 -18 0 -21 -8 -9 -23 -40 -15 -39
9 1 24 58 89 68 78 10 -9 8 -25 -2 -19 -14 9 -41 -28 -32 -43 7 -10 10 -8 16
9 5 15 10 19 17 12 13 -13 52 24 42 39 -4 8 -9 7 -15 -2 -5 -8 -6 1 -3 22 4
22 2 39 -5 43 -6 4 -11 3 -11 -1 0 -5 -10 -9 -22 -10 -21 -2 -20 0 5 13 26 14
30 14 42 -3 13 -17 14 -17 20 -1 4 10 11 15 16 12 5 -3 9 0 9 6 0 6 5 8 10 5
6 -4 8 -11 5 -16 -4 -5 -2 -9 3 -9 15 0 22 28 9 33 -8 3 -5 12 9 25 12 12 25
18 28 15 3 -4 6 -1 6 7 0 10 4 10 17 -1 15 -12 16 -12 11 2 -5 13 -2 16 13 12
10 -3 19 -1 19 5 0 11 38 28 53 24 4 -1 7 2 7 8 0 5 16 12 35 16 19 3 35 11
35 16 0 6 7 7 16 4 8 -3 12 -2 9 4 -3 6 -1 11 4 11 12 2 26 5 39 9 4 1 10 2
15 1 4 0 7 4 7 11 0 6 3 8 7 5 3 -4 14 0 23 8 10 9 21 15 26 13 9 -3 73 25
155 68 26 13 51 24 57 24 5 0 34 12 63 26 120 58 140 54 -287 54 -376 0 -392
-1 -409 -20 -9 -10 -15 -26 -12 -34 4 -10 -2 -20 -14 -26 -15 -9 -26 -7 -49
10 l-29 21 -43 -22 c-24 -12 -54 -30 -67 -40 -32 -26 -41 -24 -41 9 0 34 8 46
50 77 l34 25 -1092 0 -1092 0 0 -1581z m2337 1189 c-3 -8 -6 -5 -6 6 -1 11 2
17 5 13 3 -3 4 -12 1 -19z m-31 -43 c-4 -11 -10 -11 -40 1 -16 6 -17 4 -12
-17 6 -20 5 -21 -4 -6 -6 9 -9 21 -6 26 8 12 67 9 62 -4z m-89 -37 c-3 -8 -6
-5 -6 6 -1 11 2 17 5 13 3 -3 4 -12 1 -19z m-49 -33 c-3 -3 -9 2 -12 12 -6 14
-5 15 5 6 7 -7 10 -15 7 -18z m-21 -30 c0 -8 -4 -12 -9 -9 -5 3 -6 10 -3 15 9
13 12 11 12 -6z m-1437 -5 c0 -5 -7 -10 -15 -10 -8 0 -15 5 -15 10 0 6 7 10
15 10 8 0 15 -4 15 -10z m1474 -8 c3 -5 -1 -9 -9 -9 -8 0 -12 4 -9 9 3 4 7 8
9 8 2 0 6 -4 9 -8z m208 -24 c-7 -7 -12 -8 -12 -2 0 14 12 26 19 19 2 -3 -1
-11 -7 -17z m-124 -25 c-10 -2 -18 -9 -18 -14 0 -6 5 -7 12 -3 7 5 8 3 3 -5
-5 -9 -11 -9 -17 -3 -14 14 -1 32 20 31 15 -1 15 -2 0 -6z m107 -13 c-10 -11
-22 -17 -28 -13 -6 3 -7 1 -3 -5 4 -7 2 -10 -7 -6 -20 7 -17 36 4 31 9 -3 23
-1 30 4 22 14 23 10 4 -11z m-135 -44 c0 -6 -7 -1 -15 10 -8 10 -15 23 -15 28
0 6 7 1 15 -10 8 -10 15 -23 15 -28z m-46 23 c-2 -4 0 -10 6 -14 5 -3 10 -14
9 -23 0 -13 -2 -12 -9 5 -5 12 -17 26 -27 32 -16 9 -16 10 4 8 12 0 20 -4 17
-8z m190 -8 c8 -13 -4 -42 -15 -35 -12 7 -12 44 0 44 6 0 12 -4 15 -9z m-1614
-64 c0 -10 -4 -15 -10 -12 -5 3 -10 18 -10 33 0 21 2 24 10 12 5 -8 10 -23 10
-33z m1478 8 c-3 -3 -9 2 -12 12 -6 14 -5 15 5 6 7 -7 10 -15 7 -18z m-37 -72
c11 -15 11 -16 -1 -6 -11 10 -16 9 -27 -5 -13 -15 -13 -15 -3 6 13 27 14 27
31 5z m38 -17 c-3 -3 -11 5 -18 17 -13 21 -12 21 5 5 10 -10 16 -20 13 -22z
m141 8 c0 -8 -4 -14 -9 -14 -6 0 -9 9 -8 19 1 22 17 18 17 -5z m-250 12 c0 -2
-8 -10 -17 -17 -16 -13 -17 -12 -4 4 13 16 21 21 21 13z m220 -21 c0 -14 -5
-25 -11 -25 -5 0 -8 4 -4 9 3 5 1 13 -5 16 -6 4 -10 3 -9 -2 3 -20 -2 -27 -11
-13 -7 11 -3 18 13 27 12 7 23 12 25 13 1 0 2 -11 2 -25z m-259 -12 c13 -16
12 -17 -3 -4 -10 7 -18 15 -18 17 0 8 8 3 21 -13z m169 -3 c0 -5 -5 -10 -11
-10 -5 0 -7 5 -4 10 3 6 8 10 11 10 2 0 4 -4 4 -10z m-90 -14 c0 -2 -7 -7 -16
-10 -8 -3 -12 -2 -9 4 6 10 25 14 25 6z m41 -23 c-12 -20 -14 -14 -5 12 4 9 9
14 11 11 3 -2 0 -13 -6 -23z m59 -17 c0 -2 3 -12 7 -22 4 -12 3 -15 -5 -10 -7
4 -12 3 -12 -2 0 -15 41 -22 62 -11 12 6 18 6 18 -1 0 -5 -7 -10 -15 -10 -9 0
-12 -6 -8 -17 6 -17 5 -17 -14 0 -26 22 -28 22 -52 -12 -20 -28 -20 -30 -4
-47 13 -12 14 -16 3 -12 -8 2 -23 -4 -34 -14 -14 -13 -22 -15 -27 -7 -4 7 -14
9 -22 6 -11 -4 -14 -1 -11 8 3 8 13 11 21 8 12 -5 14 -1 8 18 -5 18 -4 21 4 9
10 -14 15 -7 12 13 -1 5 3 6 9 2 14 -9 13 8 -2 24 -10 11 -10 13 0 7 15 -9 15
-5 2 29 -6 16 -14 23 -22 19 -7 -4 -8 -3 -4 4 10 16 46 -7 39 -25 -4 -9 0 -11
11 -7 19 7 20 15 4 34 -10 11 -9 11 6 0 18 -14 19 -13 13 3 -3 9 -2 17 3 17 6
0 10 -2 10 -4z m-116 -22 c3 -8 2 -12 -4 -9 -6 3 -10 10 -10 16 0 14 7 11 14
-7z m31 -34 c3 -5 1 -10 -4 -10 -6 0 -11 5 -11 10 0 6 2 10 4 10 3 0 8 -4 11
-10z m-55 -5 c0 -2 -10 -9 -22 -15 -22 -11 -22 -10 -4 4 21 17 26 19 26 11z
m-26 -44 c3 -5 -2 -15 -12 -22 -15 -12 -16 -12 -5 2 7 9 10 19 6 22 -3 4 -4 7
0 7 3 0 8 -4 11 -9z m166 -5 c0 -3 -4 -8 -10 -11 -5 -3 -10 -1 -10 4 0 6 5 11
10 11 6 0 10 -2 10 -4z m-190 -42 c0 -2 -8 0 -19 5 -10 6 -22 7 -26 3 -5 -4
-5 -1 -1 6 5 9 12 9 27 2 10 -6 19 -13 19 -16z m53 -12 c15 -16 15 -19 2 -19
-8 0 -13 3 -10 5 3 3 0 11 -6 19 -17 20 -5 16 14 -5z m-58 -12 c3 -5 1 -10 -4
-10 -6 0 -11 5 -11 10 0 6 2 10 4 10 3 0 8 -4 11 -10z m96 -13 c-10 -9 -11 -8
-5 6 3 10 9 15 12 12 3 -3 0 -11 -7 -18z m-32 -29 c13 -22 13 -23 -6 -5 -11 9
-23 14 -28 10 -4 -5 -5 -2 -1 5 10 18 19 15 35 -10z m34 8 c3 3 3 -4 0 -17 -5
-16 -8 -19 -11 -9 -3 8 -10 22 -16 30 -9 13 -9 13 5 3 9 -7 18 -10 22 -7z
m-48 -26 c3 -5 1 -10 -4 -10 -6 0 -11 5 -11 10 0 6 2 10 4 10 3 0 8 -4 11 -10z
m-80 -19 c3 -5 2 -12 -3 -15 -5 -3 -9 1 -9 9 0 17 3 19 12 6z m138 -23 c9 2
17 -1 17 -7 0 -6 -7 -8 -16 -4 -14 5 -15 3 -4 -16 6 -13 9 -25 6 -29 -3 -3 -6
1 -6 9 0 11 -2 12 -9 1 -7 -11 -9 -10 -14 3 -5 10 -3 14 4 9 7 -4 10 -1 7 7
-3 8 -10 13 -15 12 -5 -1 -10 4 -10 12 0 8 5 11 11 7 6 -3 19 -5 29 -4z m-185
-23 c-3 -3 -9 2 -12 12 -6 14 -5 15 5 6 7 -7 10 -15 7 -18z m37 -4 c3 -5 2
-12 -3 -15 -5 -3 -9 1 -9 9 0 17 3 19 12 6z m125 -47 c0 -2 -9 0 -20 6 -11 6
-20 13 -20 16 0 2 9 0 20 -6 11 -6 20 -13 20 -16z m-83 1 c0 -8 -4 -12 -9 -9
-5 3 -6 10 -3 15 9 13 12 11 12 -6z m37 7 c3 -5 -1 -9 -9 -9 -8 0 -12 4 -9 9
3 4 7 8 9 8 2 0 6 -4 9 -8z m-12 -47 c3 0 9 -3 13 -7 4 -3 0 -5 -9 -4 -9 1
-22 8 -29 16 -10 10 -9 11 3 4 8 -5 18 -9 22 -9z m181 -29 c9 5 9 4 1 -5 -6
-6 -20 -13 -32 -16 -22 -4 -22 -3 -5 28 16 30 18 31 21 9 2 -14 8 -20 15 -16z
m-216 9 c0 -8 -4 -12 -9 -9 -5 3 -6 10 -3 15 9 13 12 11 12 -6z m-36 -48 c-6
-8 -7 -18 -3 -22 4 -5 1 -5 -6 -1 -10 6 -10 11 -1 22 6 8 14 14 16 14 3 0 0
-6 -6 -13z m66 -22 c0 -8 -4 -12 -9 -9 -5 3 -6 10 -3 15 9 13 12 11 12 -6z
m829 -65 c0 -12 -4 -16 -9 -11 -5 5 -6 14 -3 20 10 15 12 14 12 -9z m-2434
-12 c-7 -7 -12 -27 -12 -45 l0 -32 -32 14 c-35 14 -45 41 -15 39 9 -1 17 2 17
7 0 5 10 14 23 19 30 12 33 12 19 -2z m2228 -82 c0 -2 -8 -10 -17 -17 -16 -13
-17 -12 -4 4 13 16 21 21 21 13z m-337 -174 c4 9 6 9 6 1 2 -20 -16 -24 -30
-5 -13 15 -12 16 3 4 13 -10 17 -10 21 0z m-102 -61 c-7 -5 -11 -13 -7 -19 4
-6 -2 -8 -14 -5 -11 3 -23 9 -26 14 -3 5 1 6 9 3 8 -3 18 -1 22 5 3 6 12 11
18 11 8 0 7 -3 -2 -9z m-65 -56 c1 -14 -2 -25 -7 -25 -6 0 -7 5 -4 10 3 6 -2
10 -12 10 -17 1 -17 1 0 11 9 6 14 16 11 22 -4 7 -3 9 1 5 5 -5 10 -19 11 -33z
m-107 -104 c3 -1 -6 -12 -19 -26 -22 -23 -18 -31 13 -26 11 2 9 -17 -3 -24 -5
-3 -10 -2 -10 3 0 6 -9 8 -19 5 -16 -4 -19 -1 -14 19 4 18 3 20 -6 12 -17 -16
-21 -46 -7 -63 9 -12 8 -13 -7 -8 -10 4 -27 7 -37 7 -18 0 -21 15 -7 38 5 7
13 9 19 6 16 -10 28 18 15 35 -10 12 -9 13 3 6 22 -14 50 -16 50 -5 0 6 -3 9
-7 9 -19 -3 -34 2 -29 9 4 6 40 8 65 3z m-102 -8 c-4 -3 -1 -13 5 -22 7 -9 8
-13 4 -9 -5 4 -16 2 -24 -5 -13 -9 -14 -9 -8 1 5 8 1 12 -11 12 -14 0 -13 3 7
14 29 16 36 19 27 9z m-39 -57 c1 -16 -7 -30 -24 -41 -25 -16 -27 -16 -43 1
-15 17 -15 17 0 6 14 -10 20 -10 32 2 8 8 18 12 22 8 4 -4 6 2 5 13 -3 22 -1
35 3 35 1 0 4 -11 5 -24z m-44 -4 c3 -5 -1 -9 -9 -9 -8 0 -12 4 -9 9 3 4 7 8
9 8 2 0 6 -4 9 -8z m160 -23 c-4 -7 0 -9 14 -5 17 6 20 2 21 -21 1 -57 3 -64
17 -70 12 -5 11 -9 -6 -25 -24 -23 -40 -17 -20 8 9 10 10 18 3 22 -5 4 -9 18
-8 31 1 17 -6 28 -27 40 -33 19 -36 31 -7 31 12 0 17 -4 13 -11z m-184 -40 c0
-5 -4 -9 -8 -9 -5 0 -9 7 -9 15 0 8 4 12 9 9 4 -3 8 -9 8 -15z m127 9 c7 -5
14 -5 18 2 3 5 11 10 16 10 6 0 7 -5 3 -12 -5 -8 -2 -9 9 -5 17 6 22 -10 17
-57 -1 -12 2 -16 11 -11 8 5 10 4 5 -3 -13 -21 -26 -13 -26 17 0 31 -24 59
-35 41 -3 -5 0 -13 8 -16 8 -3 14 -19 14 -40 0 -27 -3 -32 -10 -19 -5 9 -6 22
-3 30 2 7 -3 19 -11 27 -15 11 -16 11 -10 -5 4 -11 3 -16 -3 -12 -6 4 -10 12
-9 18 4 33 -2 37 -42 32 -23 -3 -38 -1 -34 4 7 12 66 11 82 -1z m-12 -17 c3
-5 1 -12 -5 -16 -5 -3 -10 0 -11 7 0 10 -2 10 -6 0 -2 -6 -9 -9 -14 -6 -6 3
-17 3 -26 0 -13 -5 -13 -9 -2 -24 11 -14 11 -15 -1 -5 -9 8 -18 9 -25 3 -8 -6
-18 -4 -31 6 -18 14 -18 15 3 5 13 -7 24 -7 27 -2 4 5 0 12 -6 15 -9 4 -8 5 2
4 8 -1 22 1 30 5 49 19 57 20 65 8z m9 -46 c11 -8 15 -15 9 -15 -7 0 -15 5
-18 10 -4 6 -11 8 -16 5 -5 -4 -9 -1 -9 4 0 15 11 13 34 -4z m-163 -32 c13
-16 12 -17 -3 -4 -10 7 -18 15 -18 17 0 8 8 3 21 -13z m86 -3 c-1 -22 -24 -36
-24 -14 0 8 4 14 9 14 5 0 6 5 3 10 -3 6 -2 10 4 10 5 0 9 -9 8 -20z m63 16
c0 -2 -11 -6 -25 -8 -13 -3 -22 -1 -19 3 5 9 44 13 44 5z m199 -32 c-6 -8 -17
-14 -23 -14 -6 0 -5 4 3 9 9 6 10 11 2 15 -6 4 -9 12 -5 17 4 6 11 6 20 -2 11
-9 11 -15 3 -25z m-165 4 c-3 -4 4 -8 15 -8 10 0 22 6 25 13 3 6 3 1 0 -12 -5
-17 -3 -21 6 -16 9 5 11 4 6 -3 -5 -9 -13 -9 -27 -1 -15 8 -24 7 -35 -2 -14
-11 -14 -13 0 -21 13 -7 13 -12 3 -28 -6 -11 -15 -20 -18 -20 -13 0 -61 51
-54 58 3 4 11 -1 16 -10 6 -11 16 -15 26 -11 11 4 14 3 9 -5 -5 -8 -1 -10 10
-5 16 6 15 8 -4 16 -22 10 -25 34 -3 30 6 -2 11 1 11 5 0 17 -14 21 -29 9 -14
-10 -14 -10 -4 3 12 16 56 23 47 8z m-164 -28 c-8 -5 -19 -10 -25 -10 -5 0 -3
5 5 10 8 5 20 10 25 10 6 0 3 -5 -5 -10z m62 -14 c10 6 10 4 0 -9 -8 -9 -11
-20 -8 -25 3 -6 -2 -16 -12 -23 -13 -10 -14 -10 -6 0 15 16 6 51 -13 51 -8 0
-11 5 -8 10 5 8 11 7 20 0 8 -7 20 -8 27 -4z m-58 -14 c3 -5 -1 -9 -9 -9 -8 0
-15 4 -15 9 0 4 4 8 9 8 6 0 12 -4 15 -8z m17 -25 c-10 -9 -11 -8 -5 6 3 10 9
15 12 12 3 -3 0 -11 -7 -18z m169 -7 c0 -5 -7 -10 -16 -10 -8 0 -12 5 -9 10 3
6 10 10 16 10 5 0 9 -4 9 -10z m-180 -45 c-7 -8 -17 -15 -23 -15 -6 0 -2 7 9
15 25 19 30 19 14 0z m40 11 c0 -2 -8 -10 -17 -17 -16 -13 -17 -12 -4 4 13 16
21 21 21 13z m5 -26 c-3 -5 -1 -10 4 -10 6 0 11 -8 11 -17 -1 -17 -1 -17 -11
0 -6 10 -15 14 -22 10 -7 -4 -6 0 2 10 15 18 26 23 16 7z m-88 -16 c-3 -3 -12
-4 -19 -1 -8 3 -5 6 6 6 11 1 17 -2 13 -5z m4 -31 c13 -16 12 -17 -3 -4 -17
13 -22 21 -14 21 2 0 10 -8 17 -17z m30 -26 c-10 -9 -11 -8 -5 6 3 10 9 15 12
12 3 -3 0 -11 -7 -18z m-100 -50 c-6 -8 -8 -17 -4 -21 4 -4 0 -4 -10 0 -17 6
-17 7 0 20 23 17 28 18 14 1z"/>
<path d="M2255 9332 c-5 -4 -12 -16 -13 -27 -4 -23 0 -20 17 13 12 24 12 26
-4 14z"/>
<path d="M2216 9254 c-20 -19 -20 -25 -2 -18 8 3 17 12 20 20 7 18 1 18 -18
-2z"/>
<path d="M2010 8268 c0 -4 4 -8 9 -8 6 0 12 4 15 8 3 5 -1 9 -9 9 -8 0 -15 -4
-15 -9z"/>
<path d="M2410 9890 c-12 -7 -10 -9 8 -7 12 0 22 5 22 9 0 11 -12 10 -30 -2z"/>
<path d="M2465 9889 c-4 -6 -5 -12 -2 -15 2 -3 7 2 10 11 7 17 1 20 -8 4z"/>
<path d="M2420 9849 c-7 -11 -10 -23 -7 -25 2 -2 9 7 15 21 14 30 7 33 -8 4z"/>
<path d="M2364 9818 c-3 -5 -9 -6 -14 -3 -4 3 -10 -2 -14 -10 -3 -9 0 -15 10
-15 8 0 17 6 20 14 3 8 12 12 20 9 8 -3 14 -1 14 4 0 12 -29 13 -36 1z"/>
<path d="M2426 9796 c4 -9 1 -16 -6 -16 -9 0 -10 -3 -1 -13 6 -8 9 -17 6 -20
-3 -4 -2 -5 2 -2 10 8 12 54 2 60 -5 3 -6 -1 -3 -9z"/>
<path d="M2360 9780 c-8 -5 -12 -12 -9 -15 4 -3 12 1 19 10 14 17 11 19 -10 5z"/>
<path d="M2477 9783 c-3 -5 6 -9 20 -10 19 -1 22 1 12 8 -17 11 -26 11 -32 2z"/>
<path d="M2386 9771 c-3 -5 2 -15 12 -22 15 -12 16 -12 5 2 -7 9 -10 19 -6 22
3 4 4 7 0 7 -3 0 -8 -4 -11 -9z"/>
<path d="M2566 9768 c3 -5 10 -6 15 -3 13 9 11 12 -6 12 -8 0 -12 -4 -9 -9z"/>
<path d="M2320 9740 c0 -6 -10 -15 -22 -20 -13 -5 -17 -9 -10 -9 7 -1 17 -12
22 -26 11 -28 40 -35 35 -7 -2 9 -4 23 -4 31 -1 8 -7 11 -18 7 -15 -6 -15 -4
2 14 10 11 13 20 7 20 -7 0 -12 -5 -12 -10z m7 -62 c-3 -8 -6 -5 -6 6 -1 11 2
17 5 13 3 -3 4 -12 1 -19z"/>
<path d="M8480 9730 c-15 -27 -151 -126 -168 -122 -8 2 -11 -1 -7 -7 9 -15 -8
-14 -23 1 -7 7 -12 9 -12 4 0 -4 -7 0 -16 8 -8 9 -12 22 -8 28 4 7 4 10 -1 6
-4 -4 -15 -2 -23 5 -13 10 -14 9 -3 -13 l12 -25 -20 23 c-10 12 -26 22 -33 22
-18 0 -58 37 -58 53 0 8 -4 7 -10 -3 -8 -12 -10 -12 -16 3 -3 9 -10 15 -14 12
-5 -3 -11 -1 -15 4 -15 25 -77 -26 -139 -114 -127 -178 -207 -400 -194 -536 6
-59 24 -81 114 -140 35 -22 66 -50 70 -61 6 -19 -17 -86 -40 -117 -11 -15 -16
-33 -18 -73 0 -16 -5 -28 -10 -28 -5 0 -7 -4 -3 -9 3 -6 2 -35 -3 -65 -7 -44
-6 -60 6 -78 9 -12 10 -18 4 -14 -8 5 -11 0 -8 -16 3 -13 5 -24 7 -25 1 -2 3
-7 4 -13 1 -5 4 -13 5 -17 1 -5 2 -12 1 -17 -1 -5 6 -17 15 -27 9 -11 13 -19
8 -19 -5 0 -1 -7 9 -14 10 -8 16 -20 15 -27 -2 -8 4 -15 12 -15 8 -1 20 -2 27
-3 6 0 10 -10 8 -22 -3 -17 0 -20 15 -16 11 3 20 1 20 -4 0 -5 15 -19 33 -30
17 -12 23 -18 13 -15 -19 7 -19 6 -1 -14 10 -11 23 -20 29 -20 6 0 4 5 -4 11
-12 9 -12 10 3 5 10 -3 21 -6 23 -6 3 0 3 -4 0 -9 -3 -4 4 -17 16 -27 21 -19
21 -19 8 6 -12 22 -11 24 2 13 8 -7 18 -11 21 -8 4 3 5 2 3 -1 -9 -12 36 -46
54 -41 12 3 17 0 14 -8 -3 -7 0 -16 7 -21 8 -5 10 -3 4 7 -4 8 4 1 17 -15 16
-19 31 -27 40 -23 20 7 50 -14 46 -33 -2 -10 4 -14 16 -12 14 3 17 -1 12 -15
-6 -17 -5 -17 8 0 7 9 17 17 21 17 4 0 4 -8 0 -17 -5 -14 -4 -15 6 -6 10 10
16 7 31 -15 10 -15 18 -22 18 -16 0 5 -6 16 -12 23 -11 10 -10 11 5 6 9 -4 17
-17 17 -29 0 -17 2 -18 10 -6 12 19 39 4 57 -31 7 -14 21 -24 35 -24 13 0 22
-5 21 -11 -1 -7 6 -10 16 -7 12 3 25 -4 36 -19 10 -13 15 -16 12 -6 -4 12 -2
15 9 11 8 -3 13 -8 10 -11 -3 -3 4 -13 16 -23 25 -22 32 -24 22 -6 -6 9 -5 9
8 0 8 -7 18 -9 22 -5 4 4 6 0 4 -8 -2 -10 6 -14 27 -15 21 -1 30 -6 30 -17 0
-9 4 -20 9 -25 5 -5 6 -2 1 6 -6 11 -4 13 9 8 10 -4 20 -7 22 -7 2 0 4 -5 4
-11 0 -5 -5 -7 -12 -3 -7 4 -8 3 -4 -4 4 -6 14 -8 23 -5 12 5 14 3 8 -8 -7
-11 -5 -11 10 1 10 8 16 10 13 5 -8 -12 12 -40 30 -41 37 -3 43 -5 38 -12 -3
-5 1 -9 9 -10 8 -1 21 -3 29 -4 8 -1 12 -7 9 -15 -4 -9 0 -11 11 -7 9 3 16 11
16 18 0 6 4 5 9 -3 6 -9 6 -22 0 -34 -9 -17 -8 -17 10 -7 13 7 21 7 21 1 0 -6
7 -7 17 -4 12 5 14 3 8 -7 -6 -10 -4 -12 8 -7 10 4 16 2 14 -6 -1 -7 8 -12 20
-11 12 0 21 -2 20 -5 -3 -9 36 -51 48 -51 5 0 3 5 -5 10 -12 8 -10 9 7 7 12
-2 26 -7 30 -12 5 -4 2 -5 -4 -1 -8 4 -13 1 -13 -8 0 -10 6 -13 17 -9 10 4 14
2 9 -5 -3 -6 -1 -14 5 -18 8 -5 9 -3 4 6 -6 10 -4 12 9 7 10 -4 20 -7 22 -7 3
0 3 -4 0 -8 -2 -4 0 -14 5 -22 8 -11 9 -6 6 17 -4 38 3 34 20 -10 7 -19 12
-25 12 -14 1 10 5 16 11 12 5 -3 7 -12 3 -21 -3 -8 -2 -14 3 -13 26 5 45 -2
38 -13 -6 -10 -4 -10 8 0 13 10 17 10 21 -2 3 -7 1 -18 -4 -23 -6 -6 -4 -10 5
-10 8 0 13 4 10 9 -3 4 2 8 11 8 9 0 14 -4 11 -8 -3 -5 1 -9 9 -9 8 0 15 4 15
10 0 5 22 -14 48 -42 27 -28 55 -51 62 -51 9 0 7 5 -6 15 -18 14 -17 15 8 4
15 -7 25 -16 22 -20 -3 -5 -1 -9 5 -9 5 0 12 6 14 13 3 6 6 2 6 -10 1 -17 5
-21 18 -16 12 5 14 3 8 -7 -6 -10 -4 -12 8 -7 12 4 17 1 17 -11 0 -15 2 -15
10 -2 7 12 10 12 10 1 0 -8 6 -11 16 -7 8 3 12 2 9 -4 -3 -6 -3 -15 1 -21 4
-8 9 -7 15 2 7 11 9 11 9 -2 0 -19 26 -33 42 -22 6 3 8 1 5 -4 -4 -6 0 -14 9
-17 22 -9 26 -8 18 6 -4 7 -3 8 5 4 9 -6 9 -11 -1 -24 -12 -14 -10 -14 11 -3
15 8 21 9 17 2 -4 -6 -1 -12 6 -13 7 0 20 -2 28 -2 8 -1 14 -7 13 -14 -2 -6 6
-16 17 -22 11 -6 18 -15 15 -20 -3 -5 -1 -11 4 -14 6 -4 8 7 6 24 -5 39 -1 38
19 -5 16 -32 39 -45 49 -27 2 4 2 1 0 -7 -2 -9 3 -12 16 -8 15 3 18 1 14 -11
-4 -10 -2 -13 5 -8 7 4 12 2 12 -5 0 -6 8 -9 20 -6 12 3 17 1 14 -5 -3 -5 2
-8 12 -6 10 2 19 -2 19 -9 0 -7 6 -18 14 -25 12 -11 13 -10 6 2 -7 12 -6 13 7
3 8 -7 19 -9 23 -5 5 4 4 1 0 -7 -6 -11 -4 -13 10 -7 16 6 16 4 4 -10 -13 -16
-12 -16 8 -6 22 12 40 1 29 -17 -4 -5 2 -8 11 -7 10 2 21 -2 25 -8 4 -6 8 341
8 772 0 430 -3 781 -7 781 -20 -3 -26 2 -13 11 11 8 8 9 -12 4 -18 -4 -28 -2
-28 5 0 6 -15 18 -32 27 -18 9 -36 21 -39 26 -3 5 -10 9 -15 9 -19 -2 -44 11
-39 19 3 5 -6 12 -20 16 -14 3 -25 10 -25 15 0 5 -7 6 -15 3 -8 -4 -15 -1 -15
5 0 6 -5 11 -11 11 -5 0 -7 -5 -3 -12 4 -7 3 -8 -4 -4 -6 4 -8 14 -5 22 5 14
3 15 -15 5 -18 -9 -21 -9 -16 3 3 8 0 17 -7 22 -8 5 -10 3 -4 -5 9 -16 -37 9
-47 25 -4 6 -19 10 -34 8 -14 -1 -23 0 -20 3 7 7 -17 32 -26 26 -5 -2 -8 1 -8
7 0 6 -4 8 -10 5 -5 -3 -10 -2 -10 3 0 9 -36 25 -52 23 -3 0 -20 12 -37 28
-17 16 -31 24 -31 18 0 -9 -2 -9 -8 -1 -4 6 -17 14 -29 18 -13 4 -23 12 -23
18 0 6 -9 8 -19 5 -10 -2 -25 0 -32 5 -11 8 -10 9 4 4 9 -3 17 -1 17 4 0 6 -7
10 -15 10 -29 0 -57 19 -48 32 2 4 -3 5 -11 2 -10 -4 -16 -1 -16 7 0 12 -2 12
-9 1 -6 -10 -10 -8 -14 8 -5 18 -11 22 -31 18 -14 -3 -23 -1 -20 3 5 8 -9 13
-28 10 -4 0 -5 5 -2 13 3 9 -2 13 -18 12 -13 0 -22 4 -21 11 2 7 -6 10 -16 8
-11 -2 -22 3 -25 11 -3 8 -14 14 -25 14 -11 0 -23 5 -27 12 -5 7 -3 8 6 3 9
-6 11 -4 6 4 -5 7 -15 10 -23 7 -11 -5 -13 -2 -9 9 4 11 2 14 -6 9 -6 -4 -17
1 -25 11 -9 13 -13 14 -13 5 0 -9 -4 -8 -13 5 -9 11 -19 15 -27 10 -9 -5 -11
-4 -6 3 4 7 -3 14 -19 18 -14 3 -25 10 -25 15 0 5 -9 9 -19 9 -11 0 -22 8 -25
18 -4 10 -13 19 -21 19 -8 0 -12 -4 -9 -9 4 -5 -3 -4 -14 3 -12 7 -19 17 -16
21 3 4 -2 5 -10 2 -10 -4 -16 -1 -16 7 0 7 -3 9 -7 6 -3 -4 -11 0 -17 9 -10
13 -29 21 -60 23 -5 1 -2 9 5 19 10 13 8 12 -10 -3 -14 -11 -21 -14 -17 -7 4
7 1 12 -8 12 -9 0 -16 5 -16 10 0 6 -3 9 -7 9 -24 -4 -35 3 -29 17 4 11 2 15
-7 11 -8 -3 -20 3 -27 13 -8 11 -18 16 -23 13 -4 -3 -18 4 -30 15 -12 11 -31
22 -42 24 -11 2 -19 10 -17 17 1 7 -2 10 -8 6 -5 -3 -10 -1 -10 6 0 8 -5 7
-17 -2 -11 -10 -14 -10 -9 -1 4 7 1 12 -9 12 -9 0 -14 4 -11 9 4 5 -7 12 -24
16 -17 4 -28 11 -25 16 4 5 -2 6 -11 2 -13 -5 -16 -2 -12 9 5 11 0 14 -18 12
-13 -1 -24 2 -24 7 0 12 -58 41 -69 34 -5 -2 -12 2 -15 11 -4 11 -2 15 8 11 9
-4 12 0 9 12 -2 10 12 34 39 62 49 52 76 69 111 69 27 0 130 -40 135 -52 5
-11 22 -10 22 1 0 5 -15 16 -33 24 -17 9 -46 32 -64 51 -25 29 -39 36 -67 36
-25 0 -38 -6 -46 -20z m-45 -238 c-3 -3 -11 0 -18 7 -9 10 -8 11 6 5 10 -3 15
-9 12 -12z m-165 -1414 c0 -4 -4 -8 -9 -8 -6 0 -12 4 -15 8 -3 5 1 9 9 9 8 0
15 -4 15 -9z"/>
<path d="M2240 9709 c0 -11 4 -18 10 -14 5 3 7 12 3 20 -7 21 -13 19 -13 -6z"/>
<path d="M2439 9717 c6 -8 7 -18 3 -22 -4 -5 -2 -5 5 -1 14 8 6 36 -9 36 -7 0
-6 -5 1 -13z"/>
<path d="M2475 9679 c-4 -6 -5 -12 -2 -15 2 -3 7 2 10 11 7 17 1 20 -8 4z"/>
<path d="M2426 9672 c-3 -5 1 -9 9 -9 8 0 12 4 9 9 -3 4 -7 8 -9 8 -2 0 -6 -4
-9 -8z"/>
<path d="M2517 9629 c7 -7 15 -10 18 -7 3 3 -2 9 -12 12 -14 6 -15 5 -6 -5z"/>
<path d="M8710 9620 c0 -9 39 -25 46 -18 2 3 -7 10 -21 16 -14 6 -25 7 -25 2z"/>
<path d="M2479 9583 c-13 -16 -12 -17 4 -4 9 7 17 15 17 17 0 8 -8 3 -21 -13z"/>
<path d="M2430 9546 c0 -2 7 -7 16 -10 8 -3 12 -2 9 4 -6 10 -25 14 -25 6z"/>
<path d="M2461 9497 c-13 -21 -12 -21 5 -5 10 10 16 20 13 22 -3 3 -11 -5 -18
-17z"/>
<path d="M2571 9486 c-9 -11 -9 -16 1 -22 7 -4 10 -4 6 1 -4 4 -3 14 3 22 6 7
9 13 6 13 -2 0 -10 -6 -16 -14z"/>
<path d="M8950 9486 c0 -3 9 -10 20 -16 11 -6 20 -8 20 -6 0 3 -9 10 -20 16
-11 6 -20 8 -20 6z"/>
<path d="M9000 9466 c0 -2 8 -10 18 -17 15 -13 16 -12 3 4 -13 16 -21 21 -21
13z"/>
<path d="M2479 9458 c-5 -18 -6 -38 -1 -34 7 8 12 36 6 36 -2 0 -4 -1 -5 -2z"/>
<path d="M2450 9430 c0 -5 -8 -7 -17 -3 -12 3 -10 -1 5 -12 13 -9 26 -14 29
-11 4 3 1 6 -5 6 -6 0 -9 7 -6 15 4 8 3 15 0 15 -3 0 -6 -4 -6 -10z"/>
<path d="M9040 9432 c0 -6 9 -12 20 -15 11 -3 20 -3 20 -1 0 2 -9 8 -20 14
-11 6 -20 7 -20 2z"/>
<path d="M2380 9415 c0 -9 6 -12 15 -9 8 4 15 7 15 9 0 2 -7 5 -15 9 -9 3 -15
0 -15 -9z"/>
<path d="M9154 9365 c11 -8 24 -15 30 -15 5 0 1 7 -10 15 -10 8 -23 14 -29 14
-5 0 -1 -6 9 -14z"/>
<path d="M2365 9360 c3 -5 8 -10 11 -10 2 0 4 5 4 10 0 6 -5 10 -11 10 -5 0
-7 -4 -4 -10z"/>
<path d="M2510 9366 c0 -2 7 -7 16 -10 8 -3 12 -2 9 4 -6 10 -25 14 -25 6z"/>
<path d="M2383 9333 c-3 -10 -8 -22 -11 -27 -3 -5 0 -6 6 -2 7 4 12 13 12 21
0 7 6 16 13 18 9 4 9 6 -1 6 -7 1 -15 -7 -19 -16z"/>
<path d="M2505 9330 c-3 -5 -1 -10 4 -10 6 0 11 5 11 10 0 6 -2 10 -4 10 -3 0
-8 -4 -11 -10z"/>
<path d="M9260 9306 c0 -3 9 -10 20 -16 11 -6 20 -8 20 -6 0 3 -9 10 -20 16
-11 6 -20 8 -20 6z"/>
<path d="M2456 9286 c6 -15 4 -18 -8 -13 -11 4 -15 0 -14 -11 3 -20 34 -28 48
-14 6 6 0 8 -19 5 -27 -5 -27 -5 -8 10 16 13 18 18 7 29 -11 11 -12 10 -6 -6z"/>
<path d="M2325 9260 c-3 -5 -12 -7 -20 -3 -8 3 -15 1 -15 -5 0 -6 6 -9 13 -8
18 3 54 25 40 26 -6 0 -14 -4 -18 -10z"/>
<path d="M2352 9255 c-7 -8 -9 -15 -4 -15 5 0 15 7 22 15 16 19 -1 19 -18 0z"/>
<path d="M2322 9206 c0 -11 -6 -22 -12 -24 -5 -2 -8 -8 -4 -13 3 -5 -2 -9 -10
-9 -9 0 -16 -3 -16 -8 0 -4 -14 -23 -30 -41 -24 -26 -28 -36 -19 -47 9 -11 8
-14 -1 -14 -16 0 -5 -13 13 -16 7 -1 21 -5 32 -9 l20 -8 -20 17 c-11 10 -15
15 -8 12 6 -4 18 3 26 14 7 11 16 18 18 15 3 -2 5 5 5 15 0 24 -12 26 -32 6
-16 -17 -19 -30 -4 -21 6 3 10 1 10 -4 0 -15 -37 -14 -43 2 -5 14 18 39 27 29
4 -3 4 1 0 11 -5 13 -2 16 12 11 14 -4 16 -3 5 4 -9 7 -10 12 -2 16 6 4 11 4
11 1 0 -3 6 0 14 7 8 7 13 15 11 18 -1 3 1 16 6 29 8 19 12 22 22 12 9 -9 9
-14 -3 -21 -8 -5 -10 -10 -4 -10 5 0 16 6 23 13 10 10 12 8 9 -7 -2 -10 4 -21
12 -23 9 -3 11 -1 5 4 -5 4 -10 15 -10 23 0 8 5 18 10 22 11 9 7 10 -41 12
-24 2 -30 -2 -32 -18z"/>
<path d="M2407 9159 c-4 -16 -3 -18 9 -8 7 6 11 15 8 20 -8 13 -11 11 -17 -12z"/>
<path d="M2329 9140 c-14 -14 -14 -20 -2 -35 7 -11 13 -14 13 -8 0 6 9 9 20 6
11 -3 18 -9 15 -13 -3 -5 0 -12 6 -16 9 -5 10 0 7 14 -4 12 -2 25 3 28 12 7
-8 34 -25 34 -7 0 -7 -3 -1 -8 16 -12 16 -32 -1 -32 -8 0 -12 4 -9 10 4 6 -1
7 -12 3 -16 -6 -16 -5 -4 10 18 23 10 28 -10 7z"/>
<path d="M9587 9119 c7 -7 15 -10 18 -7 3 3 -2 9 -12 12 -14 6 -15 5 -6 -5z"/>
<path d="M2457 9085 c-4 -8 -3 -16 1 -19 4 -3 9 4 9 15 2 23 -3 25 -10 4z"/>
<path d="M2316 9047 c3 -10 9 -15 12 -12 3 3 0 11 -7 18 -10 9 -11 8 -5 -6z"/>
<path d="M2356 9045 c-11 -8 -15 -15 -9 -15 6 0 16 7 23 15 16 19 11 19 -14 0z"/>
<path d="M9720 9043 c8 -3 19 -11 23 -17 6 -7 7 -6 4 4 -2 8 -12 16 -23 17
-13 2 -15 1 -4 -4z"/>
<path d="M9974 8901 c7 -11 46 -35 46 -28 0 3 -12 12 -26 22 -15 9 -23 12 -20
6z"/>
<path d="M10150 8796 c0 -2 7 -6 15 -10 8 -3 15 -1 15 4 0 6 -7 10 -15 10 -8
0 -15 -2 -15 -4z"/>
<path d="M10200 8766 c0 -2 7 -6 15 -10 8 -3 15 -1 15 4 0 6 -7 10 -15 10 -8
0 -15 -2 -15 -4z"/>
<path d="M2651 8674 c0 -11 3 -14 6 -6 3 7 2 16 -1 19 -3 4 -6 -2 -5 -13z"/>
<path d="M2506 8598 c3 -5 10 -6 15 -3 13 9 11 12 -6 12 -8 0 -12 -4 -9 -9z"/>
<path d="M2475 8589 c-5 -8 -5 -11 0 -7 4 4 15 -2 25 -14 14 -17 17 -18 17 -5
0 10 -3 15 -5 12 -3 -3 -10 3 -17 12 -10 13 -13 14 -20 2z"/>
<path d="M2445 8581 c-3 -5 -2 -12 3 -15 5 -3 9 1 9 9 0 17 -3 19 -12 6z"/>
<path d="M2254 8422 c-15 -10 -14 -41 2 -35 7 2 12 13 11 24 -1 10 -1 19 -2
19 0 0 -5 -4 -11 -8z"/>
<path d="M2316 8402 c-3 -5 1 -9 9 -9 8 0 12 4 9 9 -3 4 -7 8 -9 8 -2 0 -6 -4
-9 -8z"/>
<path d="M2115 8379 c-3 -3 16 -6 40 -5 25 0 45 3 45 7 0 9 -80 7 -85 -2z"/>
<path d="M2204 8355 c-3 -8 -4 -20 -2 -27 3 -7 7 -1 10 15 6 29 1 36 -8 12z"/>
<path d="M2470 8305 c-7 -9 -11 -17 -9 -20 3 -2 10 5 17 15 14 24 10 26 -8 5z"/>
<path d="M2281 8283 c7 -12 15 -20 18 -17 3 2 -3 12 -13 22 -17 16 -18 16 -5
-5z"/>
<path d="M2214 8259 c-3 -6 -2 -15 3 -20 5 -5 9 -1 9 11 0 23 -2 24 -12 9z"/>
<path d="M2260 8251 c0 -6 4 -13 10 -16 6 -3 7 1 4 9 -7 18 -14 21 -14 7z"/>
<path d="M2325 8221 c-3 -5 -2 -12 3 -15 5 -3 9 1 9 9 0 17 -3 19 -12 6z"/>
<path d="M2155 8210 c3 -5 8 -10 11 -10 2 0 4 5 4 10 0 6 -5 10 -11 10 -5 0
-7 -4 -4 -10z"/>
<path d="M2209 8207 c7 -7 14 -8 21 -1 6 6 2 10 -12 11 -16 2 -18 -1 -9 -10z"/>
<path d="M2479 8203 c-13 -16 -12 -17 4 -4 16 13 21 21 13 21 -2 0 -10 -8 -17
-17z"/>
<path d="M2320 8182 c0 -6 5 -14 11 -18 8 -4 7 -9 -2 -16 -11 -8 -10 -9 3 -4
11 3 22 -2 28 -14 6 -11 16 -20 23 -20 9 0 8 3 -1 9 -11 6 -10 11 3 25 9 9 13
16 8 16 -5 0 -14 -5 -20 -11 -7 -7 -17 -3 -32 17 -11 15 -21 22 -21 16z"/>
<path d="M2420 8170 c0 -5 5 -10 11 -10 5 0 7 5 4 10 -3 6 -8 10 -11 10 -2 0
-4 -4 -4 -10z"/>
<path d="M2457 8132 c-14 -15 -15 -19 -2 -19 8 0 12 4 9 8 -2 4 2 9 8 12 7 2
10 7 7 11 -3 3 -13 -2 -22 -12z"/>
<path d="M2308 8113 c7 -3 16 -2 19 1 4 3 -2 6 -13 5 -11 0 -14 -3 -6 -6z"/>
<path d="M2263 8087 c1 -7 -10 -11 -30 -10 -24 1 -30 -2 -26 -13 4 -11 9 -12
18 -4 25 21 23 -6 -2 -28 -15 -14 -23 -17 -20 -8 4 9 2 18 -3 21 -6 4 -10 -1
-10 -9 0 -9 -4 -16 -10 -16 -5 0 -8 6 -6 13 1 6 1 8 -2 4 -2 -4 -11 -2 -20 5
-13 11 -15 10 -10 -3 4 -9 2 -21 -4 -27 -7 -7 -3 -12 12 -17 15 -5 26 -2 31 6
8 12 10 12 18 1 7 -11 9 -11 14 2 4 9 13 13 21 10 8 -3 17 -1 21 5 3 6 1 11
-5 11 -6 0 -8 5 -5 10 5 8 12 7 22 -2 14 -11 15 -10 8 11 -4 15 -3 26 5 31 8
5 7 9 -4 13 -9 4 -15 1 -13 -6z m-93 -77 c0 -5 -4 -10 -10 -10 -5 0 -10 5 -10
10 0 6 5 10 10 10 6 0 10 -4 10 -10z"/>
<path d="M2370 8075 c-11 -13 -10 -14 4 -9 9 3 16 10 16 15 0 13 -6 11 -20 -6z"/>
<path d="M2330 8060 c-8 -5 -12 -12 -9 -15 4 -3 12 1 19 10 14 17 11 19 -10 5z"/>
<path d="M2121 8051 c-1 -8 -8 -22 -17 -32 -10 -11 -12 -19 -5 -24 12 -7 34
42 27 59 -2 6 -5 5 -5 -3z"/>
<path d="M2037 7986 c-9 -23 4 -56 22 -56 17 1 62 30 45 30 -6 0 -15 -5 -22
-12 -9 -9 -16 -8 -29 5 -9 9 -13 20 -9 24 5 5 11 2 13 -4 3 -7 9 -13 14 -13 5
0 4 9 -3 20 -15 24 -24 25 -31 6z"/>
<path d="M8471 7944 c0 -11 3 -14 6 -6 3 7 2 16 -1 19 -3 4 -6 -2 -5 -13z"/>
<path d="M8545 6736 c-63 -20 -86 -34 -156 -102 -65 -62 -67 -63 -102 -53 -51
14 -109 -4 -141 -42 -45 -54 -36 -86 58 -213 36 -49 66 -93 66 -98 0 -5 -15 2
-33 16 -95 72 -251 119 -397 120 -178 0 -296 -43 -412 -153 -38 -35 -68 -59
-68 -54 0 8 -67 104 -258 374 -50 70 -94 93 -170 87 -48 -4 -60 -10 -89 -41
-27 -30 -33 -45 -33 -81 0 -39 11 -60 107 -202 59 -88 138 -202 175 -254 37
-52 91 -130 120 -172 29 -43 58 -78 63 -78 6 0 16 -20 22 -43 17 -61 96 -162
170 -216 195 -143 510 -171 728 -65 144 71 231 208 179 283 -39 55 -167 80
-215 42 -13 -10 -47 -41 -74 -69 -39 -39 -64 -54 -109 -67 -71 -21 -156 -15
-217 15 -37 17 -45 18 -75 5 -19 -8 -34 -10 -34 -6 0 4 44 25 98 46 121 47
635 271 662 287 24 15 23 17 108 -107 54 -79 77 -105 112 -122 74 -38 157 -26
210 31 41 45 33 83 -35 171 -124 159 -275 371 -281 391 -4 14 4 37 20 62 20
32 42 49 100 76 85 40 116 73 116 123 0 44 -49 96 -105 112 -49 13 -59 13
-110 -3z m-582 -638 c20 -11 16 -15 -58 -49 -44 -20 -134 -58 -200 -84 -66
-26 -128 -51 -137 -56 -26 -13 -38 -11 -32 5 3 8 12 12 20 9 8 -3 16 3 20 13
28 90 93 149 191 174 46 11 167 4 196 -12z m-156 -474 c-3 -3 -12 -4 -19 -1
-8 3 -5 6 6 6 11 1 17 -2 13 -5z"/>
<path d="M6501 6433 c-63 -32 -87 -102 -56 -163 18 -35 387 -581 489 -724 40
-55 116 -165 170 -243 108 -157 133 -177 221 -176 62 0 110 24 135 66 35 56
28 73 -105 263 -199 286 -411 592 -532 767 -61 89 -128 175 -147 191 -45 37
-123 46 -175 19z"/>
<path d="M6200 5744 c-161 -32 -331 -141 -410 -264 -66 -103 -89 -261 -55
-378 65 -218 342 -377 625 -358 254 16 441 128 536 321 38 77 39 82 39 185 0
102 -1 109 -37 181 -44 89 -144 193 -227 238 -108 57 -174 73 -316 76 -71 2
-141 1 -155 -1z m37 -30 c-3 -3 -12 -4 -19 -1 -8 3 -5 6 6 6 11 1 17 -2 13 -5z
m196 -1 c-7 -2 -19 -2 -25 0 -7 3 -2 5 12 5 14 0 19 -2 13 -5z m172 -51 c-3
-3 -11 0 -18 7 -9 10 -8 11 6 5 10 -3 15 -9 12 -12z m141 -84 l29 -33 -32 29
c-31 28 -38 36 -30 36 2 0 16 -15 33 -32z m-264 -116 c104 -51 165 -144 155
-234 -20 -169 -203 -273 -394 -224 -247 63 -298 319 -91 451 88 55 227 58 330
7z"/>
<path d="M8880 5380 c-19 -4 -100 -36 -180 -72 -80 -36 -196 -87 -259 -114
-143 -62 -181 -94 -181 -155 0 -53 17 -81 64 -103 42 -20 91 -20 142 -2 66 23
518 228 545 247 32 23 61 80 53 106 -14 43 -29 63 -58 76 -42 20 -84 25 -126
17z"/>
<path d="M5304 5350 c-196 -51 -354 -185 -420 -355 -14 -38 -19 -75 -19 -156
0 -101 1 -108 37 -181 23 -46 60 -99 96 -136 210 -218 648 -236 863 -35 94 88
111 164 48 217 -35 29 -82 40 -145 33 -37 -4 -54 -14 -102 -59 -69 -66 -120
-83 -222 -76 -159 12 -273 119 -272 256 1 131 115 241 268 258 105 12 174 69
174 146 0 93 -137 133 -306 88z m233 -37 c10 -10 13 -14 7 -10 -7 5 -25 12
-41 17 -23 7 -24 8 -7 9 12 1 30 -7 41 -16z"/>
<path d="M4130 5194 c-35 -7 -84 -20 -108 -29 -133 -45 -283 -170 -338 -280
-26 -53 -29 -71 -29 -150 0 -73 4 -98 22 -131 51 -96 120 -150 243 -188 112
-36 202 -40 370 -20 195 23 315 24 357 1 50 -27 73 -63 73 -116 0 -70 -33
-112 -124 -156 -62 -31 -87 -38 -158 -42 -47 -3 -122 1 -174 9 -51 8 -102 11
-119 7 -41 -12 -94 -67 -106 -112 -24 -89 30 -128 212 -154 378 -54 723 130
769 411 18 113 -16 214 -104 301 -122 123 -280 150 -601 105 -213 -31 -292
-18 -335 53 -25 40 -25 58 0 106 24 48 69 87 140 120 52 25 62 26 199 24 163
-3 180 2 225 70 30 47 32 66 11 106 -27 53 -119 81 -265 80 -52 0 -124 -7
-160 -15z"/>
<path d="M7660 4843 c-40 -14 -630 -276 -1325 -590 -115 -53 -273 -123 -350
-158 -796 -356 -962 -435 -1000 -475 -46 -48 -43 -138 6 -168 35 -22 113 -26
166 -9 27 9 143 59 258 112 116 53 253 116 305 140 174 80 831 375 835 375 2
0 138 61 302 136 164 75 393 178 508 229 428 188 444 197 475 248 24 39 25 60
3 98 -30 50 -125 82 -183 62z"/>
<path d="M2745 4815 c122 -12 236 -34 349 -69 27 -8 45 -11 39 -5 -14 14 -231
67 -325 79 -45 5 -107 9 -138 9 -36 -1 -10 -6 75 -14z"/>
<path d="M2500 4810 c-16 -5 -2 -6 35 -3 33 3 62 7 64 9 8 7 -74 2 -99 -6z"/>
<path d="M3165 4699 c18 -34 12 -87 -11 -96 -8 -3 -14 -10 -14 -17 1 -20 50
44 50 65 0 20 -26 79 -36 79 -2 0 3 -14 11 -31z"/>
<path d="M2572 4659 c-92 -12 -262 -70 -262 -90 0 -5 -7 -6 -15 -3 -8 4 -17
-1 -21 -10 -3 -9 -10 -14 -14 -11 -4 3 -10 -2 -14 -10 -3 -8 -11 -15 -18 -15
-9 0 -9 3 2 11 13 9 13 10 0 6 -8 -2 -15 -10 -15 -18 -1 -8 -6 -13 -13 -11 -7
1 -11 -4 -10 -10 2 -7 -3 -12 -10 -10 -6 1 -11 -1 -10 -5 2 -5 -1 -10 -7 -12
-10 -5 -25 -16 -50 -39 -11 -10 -19 -10 -36 -2 -16 9 -24 9 -33 0 -8 -8 -6 -9
8 -4 16 6 18 4 13 -9 -4 -10 -2 -17 5 -17 6 0 8 -3 5 -6 -4 -4 -13 -2 -20 4
-8 7 -17 8 -21 4 -4 -4 -6 0 -4 8 2 8 -2 14 -9 15 -6 0 -15 4 -20 9 -5 5 -3 6
5 2 22 -13 25 22 3 45 -19 21 -19 23 -3 36 15 13 15 13 -5 3 -12 -5 -25 -15
-29 -22 -5 -7 -3 -8 6 -3 9 6 11 4 5 -5 -6 -10 -12 -8 -26 8 -14 18 -19 19
-28 8 -6 -7 -7 -17 -3 -21 4 -5 2 -5 -5 -1 -15 8 -83 -76 -117 -146 -78 -161
-74 -341 10 -485 37 -64 146 -168 220 -209 107 -60 202 -86 334 -91 146 -6
210 7 400 83 122 49 155 58 208 59 61 0 65 -2 98 -37 62 -68 38 -150 -64 -227
-70 -53 -149 -81 -247 -88 -72 -5 -95 -2 -192 26 -129 37 -133 37 -181 12 -58
-30 -83 -110 -44 -143 19 -18 114 -50 217 -74 99 -24 268 -21 368 5 178 47
329 159 397 295 30 60 35 79 34 135 -1 37 -7 77 -13 91 -10 23 -11 23 -7 3 2
-13 1 -23 -4 -23 -16 0 -30 28 -23 45 5 14 3 16 -7 10 -9 -5 -11 -4 -6 4 8 12
-50 76 -96 106 -15 9 -25 21 -22 26 3 5 -2 6 -11 2 -14 -5 -14 -8 -3 -15 9 -7
8 -8 -5 -4 -10 3 -21 6 -24 6 -3 0 1 8 8 17 10 11 10 14 2 9 -8 -4 -13 -2 -13
4 0 8 -10 10 -27 6 -21 -5 -24 -4 -13 4 12 7 8 10 -18 10 -18 0 -31 -4 -28 -8
2 -4 -5 -9 -17 -9 -17 -2 -19 0 -7 7 10 7 -2 10 -40 10 -38 0 -86 -11 -152
-35 -315 -113 -285 -105 -394 -105 -198 0 -338 82 -418 245 -26 53 -28 66 -24
141 2 46 10 89 17 98 7 8 10 19 7 25 -3 5 -3 11 1 13 11 4 65 88 57 88 -4 0 5
9 20 21 14 11 23 26 19 32 -3 7 -3 9 2 5 4 -4 31 13 59 38 28 25 81 60 118 78
37 19 64 37 60 42 -4 4 -2 4 4 1 16 -9 84 14 77 26 -3 6 -1 7 6 3 6 -4 37 -2
67 4 58 12 226 15 292 5 28 -4 32 -3 17 4 -14 7 -16 10 -5 11 8 1 4 6 -10 11
-35 14 -162 18 -238 8z m-578 -193 c-3 -8 -14 -14 -24 -13 -10 1 -16 5 -14 9
3 5 9 6 14 3 5 -3 11 -1 15 5 9 15 15 12 9 -4z m116 -61 c0 -12 -19 -12 -23 0
-4 9 -1 12 9 8 7 -3 14 -7 14 -8z m-90 -41 c0 -8 -19 -13 -24 -6 -3 5 1 9 9 9
8 0 15 -2 15 -3z m40 -2 c0 -5 -7 -9 -15 -9 -8 0 -12 4 -9 9 3 4 9 8 15 8 5 0
9 -4 9 -8z"/>
<path d="M2049 4613 c-13 -16 -12 -17 4 -4 9 7 17 15 17 17 0 8 -8 3 -21 -13z"/>
<path d="M1995 4570 c-28 -29 -44 -67 -23 -54 5 3 7 9 3 12 -3 3 9 21 27 39
17 18 30 33 27 33 -3 0 -18 -14 -34 -30z"/>
<path d="M3070 4570 l-45 -7 40 -1 c22 -1 47 3 55 8 8 5 11 9 5 8 -5 0 -30 -4
-55 -8z"/>
<path d="M2020 4489 c0 -5 5 -7 10 -4 6 3 10 8 10 11 0 2 -4 4 -10 4 -5 0 -10
-5 -10 -11z"/>
<path d="M2370 4490 c-9 -6 -10 -10 -3 -10 6 0 15 5 18 10 8 12 4 12 -15 0z"/>
<path d="M2050 4465 c-7 -9 -8 -15 -2 -15 5 0 12 7 16 15 3 8 4 15 2 15 -2 0
-9 -7 -16 -15z"/>
<path d="M3048 4426 c3 -25 -2 -39 -20 -55 -19 -19 -31 -22 -78 -18 -30 3 -97
15 -147 28 -86 21 -98 22 -170 10 -90 -15 -153 -40 -205 -81 -20 -17 -42 -30
-49 -30 -7 0 -4 7 7 15 10 8 15 15 9 14 -24 -3 -36 2 -29 13 4 7 3 8 -4 4 -7
-4 -12 -16 -12 -26 0 -10 -5 -22 -12 -26 -7 -5 -9 -2 -6 7 3 8 2 23 -2 34 -4
11 -3 27 3 35 9 12 8 13 -2 3 -7 -6 -21 -9 -30 -6 -12 4 -13 3 -3 -5 11 -7 9
-10 -7 -15 -11 -3 -20 -2 -19 2 3 27 -4 33 -16 12 -8 -15 -16 -20 -20 -12 -4
6 -2 11 4 11 7 0 10 6 7 13 -2 6 7 30 21 52 24 40 24 39 -32 -15 -67 -65 -98
-114 -121 -194 -49 -167 65 -325 256 -355 79 -13 159 -2 259 34 254 93 275 99
360 103 144 7 262 -34 361 -125 95 -89 132 -190 110 -309 -18 -96 -56 -160
-151 -256 -75 -75 -101 -94 -181 -132 -151 -71 -198 -81 -389 -80 -150 1 -173
4 -255 28 -185 57 -184 57 -219 42 -46 -19 -76 -61 -76 -106 0 -47 16 -61 105
-95 524 -198 1105 -27 1348 395 73 128 93 303 49 432 -75 217 -277 370 -542
409 -91 13 -249 7 -277 -11 -15 -9 -13 -10 12 -5 99 19 249 10 368 -20 166
-42 325 -164 390 -297 19 -40 40 -97 47 -127 14 -60 9 -198 -9 -228 -8 -14
-11 -14 -11 -3 0 13 -1 13 -10 0 -5 -8 -10 -10 -10 -5 0 6 7 21 16 33 9 13 13
26 10 29 -3 3 -1 12 4 18 8 9 6 14 -6 19 -14 5 -14 9 -3 23 12 14 12 16 0 9
-11 -7 -11 -5 -3 9 8 15 5 22 -12 36 -13 11 -23 13 -27 7 -4 -7 -9 -6 -13 1
-4 6 -2 11 5 11 9 0 9 3 0 14 -10 12 -9 14 6 12 10 -2 18 -8 18 -14 0 -20 13
-23 18 -3 3 11 2 20 -2 19 -3 -1 -15 3 -25 7 -13 6 -23 4 -30 -6 -6 -8 -21
-13 -33 -11 -21 3 -28 -7 -24 -31 1 -5 -3 -6 -9 -2 -6 3 -8 10 -5 15 3 4 -2
11 -11 14 -9 3 -14 13 -11 20 3 8 1 17 -6 20 -7 2 -4 5 7 5 13 1 17 -4 13 -18
-4 -17 7 -21 33 -11 3 1 13 1 24 0 11 -1 15 3 12 9 -4 7 1 11 13 11 11 0 23 5
26 11 4 6 13 8 21 5 8 -3 11 0 8 8 -3 7 -11 13 -19 13 -8 0 -11 -5 -8 -10 3
-5 0 -7 -8 -5 -8 3 -22 -1 -32 -10 -9 -8 -20 -12 -24 -8 -4 4 -1 12 7 17 13 9
13 10 -1 6 -9 -3 -22 0 -29 6 -10 10 -10 7 -1 -10 7 -15 8 -24 1 -28 -6 -4 -9
-1 -8 7 4 17 -43 23 -53 6 -7 -10 -9 -9 -9 5 0 9 5 17 11 17 5 0 7 5 4 11 -4
6 -9 8 -12 5 -7 -7 -79 86 -75 97 1 4 -4 6 -10 5 -7 -2 -12 3 -10 10 1 8 -1
11 -6 8 -5 -3 -24 6 -43 20 -42 32 -119 71 -150 78 -13 3 -44 10 -68 16 -50
12 -187 16 -216 5 -11 -4 -32 -11 -47 -17 -15 -5 -31 -7 -37 -4 -5 4 -12 2
-16 -4 -3 -5 -11 -10 -17 -10 -6 0 -8 3 -5 7 4 3 0 15 -10 25 -9 10 -13 18 -8
18 4 0 2 7 -5 15 -7 8 -10 21 -7 29 6 16 -19 30 -35 19 -7 -3 -8 -1 -4 5 8 13
68 11 78 -3 5 -6 8 -5 8 3 0 7 -8 16 -17 19 -14 6 -12 9 12 19 17 7 25 13 18
14 -6 0 -39 -12 -72 -26 -55 -24 -59 -28 -44 -40 11 -7 22 -9 29 -3 7 5 11 3
11 -6 0 -14 -5 -16 -44 -18 -10 -1 -21 -6 -26 -12 -4 -5 -5 2 -3 18 3 15 3 27
2 27 -1 0 -29 -11 -62 -24 -84 -34 -134 -40 -177 -22 -52 21 -71 55 -65 117 4
42 12 57 44 90 96 99 253 132 431 90 109 -25 146 -26 183 -4 44 26 65 88 37
111 -10 9 -12 4 -9 -22z m-814 -61 c-9 -14 -20 -25 -25 -25 -5 0 1 11 13 25
12 14 23 25 25 25 2 0 -4 -11 -13 -25z m-21 -50 c-3 -9 -8 -14 -10 -11 -3 3
-2 9 2 15 9 16 15 13 8 -4z m143 -68 c17 6 18 -2 3 -29 -6 -11 -15 -41 -20
-67 -8 -42 -8 -40 -4 18 3 41 1 70 -7 80 -10 13 -10 14 1 4 7 -6 20 -9 27 -6z
m29 -197 c3 -6 -1 -7 -9 -4 -18 7 -21 14 -7 14 6 0 13 -4 16 -10z m225 -5 c0
-6 -73 -25 -78 -20 -2 2 11 8 29 14 41 11 49 12 49 6z m84 -13 c3 -5 -1 -9 -9
-9 -8 0 -12 4 -9 9 3 4 7 8 9 8 2 0 6 -4 9 -8z m53 -54 c-3 -8 -6 -5 -6 6 -1
11 2 17 5 13 3 -3 4 -12 1 -19z m852 -301 c-2 -1 -13 -9 -24 -17 -19 -14 -19
-14 -6 3 7 9 18 17 24 17 6 0 8 -1 6 -3z"/>
<path d="M2296 4378 c3 -5 10 -6 15 -3 13 9 11 12 -6 12 -8 0 -12 -4 -9 -9z"/>
<path d="M7795 4225 c-42 -22 -55 -43 -55 -87 0 -28 7 -46 24 -63 51 -51 160
-41 196 18 29 46 25 74 -14 113 -28 28 -41 34 -77 34 -24 0 -57 -7 -74 -15z"/>
<path d="M2674 4073 c10 -11 37 -12 30 -2 -3 5 -12 9 -21 9 -9 0 -13 -3 -9 -7z"/>
<path d="M2802 4068 c2 -6 10 -13 16 -14 7 -1 8 0 2 3 -5 2 -8 9 -4 14 3 5 0
9 -6 9 -7 0 -10 -5 -8 -12z"/>
<path d="M2868 4073 c7 -3 16 -2 19 1 4 3 -2 6 -13 5 -11 0 -14 -3 -6 -6z"/>
<path d="M2768 4053 c7 -3 16 -2 19 1 4 3 -2 6 -13 5 -11 0 -14 -3 -6 -6z"/>
<path d="M2840 4035 c-10 -12 -16 -13 -27 -4 -20 17 -43 -5 -25 -23 8 -8 15
-9 20 -3 10 14 46 19 37 6 -4 -7 0 -8 10 -4 12 4 13 8 5 13 -7 4 -9 13 -6 19
10 16 0 13 -14 -4z"/>
<path d="M7310 3913 c0 -6 8 -17 18 -24 16 -13 16 -13 2 6 -8 11 -16 22 -17
24 -2 2 -3 0 -3 -6z"/>
<path d="M7520 3898 c-12 -22 -12 -22 6 -6 10 10 15 20 12 24 -4 3 -12 -5 -18
-18z"/>
<path d="M9420 3877 c-14 -7 -26 -22 -28 -34 -2 -11 27 -87 63 -168 78 -174
160 -370 185 -440 10 -27 29 -80 43 -116 19 -49 22 -66 12 -66 -7 0 -11 6 -8
14 3 7 0 13 -7 13 -6 0 -8 5 -4 12 4 7 3 8 -4 4 -6 -4 -9 -12 -6 -19 3 -8 -7
-12 -28 -13 -29 -1 -40 -10 -39 -31 0 -5 -10 -14 -22 -21 -22 -13 -22 -13 3
-8 21 4 22 3 10 -7 -8 -7 -22 -21 -30 -32 -14 -19 -14 -20 6 -2 20 16 21 16
19 -3 -1 -10 -9 -28 -18 -38 -18 -19 -14 -34 7 -26 7 3 12 -5 13 -18 2 -18 0
-20 -7 -8 -5 8 -10 11 -10 6 0 -5 9 -24 21 -42 19 -31 19 -34 2 -28 -13 4 -11
0 7 -16 14 -12 19 -18 11 -14 -11 5 -13 3 -8 -10 4 -10 7 -20 7 -22 0 -3 4 -3
8 0 5 3 8 -8 7 -25 -1 -16 2 -32 7 -35 4 -3 8 -10 8 -15 0 -6 -4 -7 -10 -4
-16 10 -11 -1 7 -16 15 -12 16 -12 8 1 -5 9 -5 12 1 7 5 -5 9 -12 9 -15 0 -4
4 -13 9 -21 6 -10 5 -12 -2 -7 -7 4 -12 2 -12 -3 0 -6 8 -11 18 -12 10 0 12
-3 5 -6 -7 -2 -13 -10 -13 -15 0 -6 3 -8 7 -5 12 13 36 -33 24 -46 -13 -16 -2
-60 13 -54 6 3 18 -3 26 -11 13 -14 12 -15 -3 -9 -15 5 -15 4 -4 -16 6 -12 16
-25 21 -28 5 -4 5 -12 2 -18 -4 -6 -3 -11 3 -11 5 0 11 3 14 8 2 4 3 2 1 -5
-1 -6 6 -19 17 -29 10 -9 19 -22 19 -28 0 -6 -4 -5 -9 2 -7 11 -9 11 -14 -2
-4 -9 -3 -15 1 -15 20 3 30 -3 28 -18 0 -11 5 -17 14 -15 10 1 9 -3 -5 -14
-16 -13 -16 -15 -3 -11 10 3 20 2 23 -3 4 -6 0 -10 -7 -11 -7 0 -3 -4 9 -9 14
-6 20 -15 17 -23 -3 -8 6 -21 21 -31 14 -9 23 -21 19 -27 -8 -13 16 -40 29
-32 6 4 8 0 5 -8 -3 -8 0 -23 8 -33 7 -11 11 -23 8 -28 -3 -5 0 -7 8 -6 7 2
12 -2 11 -9 -2 -7 4 -10 12 -7 11 4 13 2 10 -9 -4 -8 1 -17 12 -21 15 -6 15
-9 3 -17 -12 -8 -10 -10 8 -6 19 4 21 3 12 -8 -9 -10 -7 -18 8 -33 11 -11 18
-23 15 -26 -4 -3 1 -6 10 -6 12 0 17 -8 17 -26 0 -14 4 -23 10 -19 15 9 47
-29 44 -53 -2 -11 1 -24 8 -28 7 -4 8 -3 4 4 -4 7 -2 12 5 12 7 0 9 -8 6 -21
-4 -15 1 -23 19 -31 16 -8 21 -14 13 -19 -8 -4 -5 -9 9 -13 14 -5 19 -13 17
-27 -2 -11 0 -17 6 -14 5 4 9 -4 10 -17 0 -22 1 -22 9 -3 9 20 14 1435 6 1435
-3 0 -21 -10 -41 -21 -20 -12 -38 -19 -41 -16 -3 3 15 17 40 32 43 25 46 29
46 70 l0 44 -52 -24 c-64 -30 -74 -30 -123 -6 l-39 19 55 31 c71 41 126 56
145 40 12 -9 14 -6 14 17 0 20 -8 34 -24 44 -13 8 -68 49 -123 90 -54 42 -138
107 -188 145 -49 37 -154 120 -233 184 -219 177 -207 171 -252 148z m72 -24
c19 -16 100 -85 179 -155 79 -69 176 -152 215 -185 40 -32 119 -99 177 -149
l105 -91 -79 -36 -80 -36 -47 48 c-26 26 -60 65 -77 86 -36 47 -103 125 -154
180 -41 43 -291 354 -291 361 0 10 19 2 52 -23z m218 -1349 c0 -8 -5 -12 -10
-9 -6 4 -8 11 -5 16 9 14 15 11 15 -7z"/>
<path d="M7465 3873 c-11 -3 -24 -9 -29 -14 -5 -5 5 -4 24 1 51 15 55 25 5 13z"/>
<path d="M6945 3838 c-70 -38 -87 -102 -40 -152 21 -23 32 -26 86 -26 57 0 64
3 96 35 30 30 35 40 29 67 -7 33 -41 78 -60 78 -6 0 2 -11 18 -23 55 -44 30
-119 -46 -136 -39 -9 -96 6 -122 32 -18 18 -22 67 -5 67 5 0 7 5 4 10 -3 6 -2
10 4 10 5 0 11 -3 14 -7 2 -5 2 -3 1 4 -4 17 38 41 82 46 l39 4 -40 1 c-22 1
-49 -4 -60 -10z"/>
<path d="M6530 3660 c-93 -22 -116 -132 -38 -180 108 -66 251 50 178 143 -17
22 -79 50 -100 46 -3 -1 -21 -5 -40 -9z"/>
<path d="M4455 3482 c-75 -25 -139 -94 -155 -165 -11 -49 -11 -62 4 -102 59
-152 299 -195 436 -78 160 137 62 349 -165 359 -47 2 -87 -2 -120 -14z"/>
<path d="M6073 3451 c-47 -29 -66 -64 -59 -105 9 -45 36 -67 89 -73 121 -14
198 80 134 161 -32 39 -115 48 -164 17z"/>
<path d="M5653 3265 c-67 -29 -89 -118 -40 -161 42 -36 88 -40 142 -14 46 22
75 61 75 100 0 70 -96 111 -177 75z"/>
<path d="M9630 3091 c0 -6 -8 -11 -17 -12 -10 0 -13 -3 -6 -5 18 -8 49 11 34
20 -6 4 -11 2 -11 -3z"/>
<path d="M5203 3060 c-39 -23 -53 -48 -53 -93 0 -52 45 -87 111 -87 119 0 182
98 110 171 -25 25 -37 29 -83 29 -35 0 -64 -7 -85 -20z"/>
<path d="M9560 2940 c-9 -6 -10 -10 -3 -10 6 0 15 5 18 10 8 12 4 12 -15 0z"/>
<path d="M1794 2583 c-81 -91 -320 -337 -434 -449 -89 -87 -175 -151 -210
-159 -16 -4 -39 -19 -50 -33 -50 -65 -110 -153 -110 -161 0 -5 -15 -32 -34
-60 -19 -28 -38 -61 -41 -74 -4 -12 -20 -35 -36 -52 -15 -16 -35 -46 -43 -65
-8 -20 -23 -44 -35 -54 -11 -10 -23 -32 -27 -50 -3 -17 -19 -45 -34 -63 -16
-17 -31 -42 -35 -55 -4 -13 -21 -38 -36 -56 -16 -18 -29 -41 -29 -51 0 -11
-16 -38 -35 -61 -19 -23 -35 -48 -35 -56 0 -8 -19 -44 -42 -78 -24 -35 -95
-144 -158 -242 -63 -97 -125 -191 -137 -208 -11 -17 -41 -63 -64 -103 -24 -39
-46 -70 -50 -68 -3 2 -6 -1 -6 -8 0 -23 -32 -87 -43 -87 -6 0 -8 -4 -5 -10 3
-6 1 -10 -5 -10 -6 0 -8 -5 -5 -10 3 -5 3 -10 -2 -10 -4 0 -18 -15 -31 -33
-19 -29 -22 -46 -22 -125 l0 -92 519 0 c471 1 520 2 533 17 11 14 11 16 -1 8
-10 -5 -12 -4 -7 3 4 7 15 12 24 13 11 0 12 3 5 6 -7 2 -13 9 -13 14 0 6 4 8
9 4 5 -3 12 4 16 15 3 11 12 19 18 17 7 -1 10 5 9 13 -10 42 -9 49 5 54 8 3
19 4 24 1 5 -4 6 1 3 9 -3 9 -9 14 -13 11 -4 -2 -8 2 -8 9 0 7 6 13 13 13 7 0
11 -4 8 -9 -3 -4 2 -8 11 -8 14 0 13 5 -6 38 -22 36 -22 37 -1 18 30 -26 55
-15 42 19 -7 18 -6 25 3 25 8 0 7 4 -3 10 -12 8 -11 10 5 7 11 -1 25 -5 30 -9
6 -3 10 4 10 17 0 13 -3 21 -6 19 -4 -2 -10 3 -13 12 -3 8 -2 12 4 9 13 -8 38
17 32 33 -3 11 9 16 33 13 6 -1 2 5 -8 13 -17 13 -16 14 3 19 13 3 18 10 14
21 -3 9 -11 16 -16 16 -6 0 0 9 13 19 15 12 28 16 35 11 6 -6 10 -1 10 15 0
14 -4 25 -9 25 -5 0 -2 7 7 15 8 8 19 15 23 15 5 0 9 15 9 32 -1 18 4 32 10
31 6 -1 10 8 10 20 -1 12 4 22 11 22 6 0 15 4 20 9 4 5 3 6 -3 3 -7 -4 -11 4
-10 22 1 16 2 28 4 26 2 -2 12 4 21 13 13 13 15 23 9 41 -5 13 -6 26 -3 29 3
3 5 0 5 -6 0 -7 5 -12 10 -12 14 0 12 33 -2 49 -11 11 -10 12 2 5 25 -14 39
-13 33 4 -4 10 -2 13 5 8 7 -4 12 -5 12 -1 0 3 -10 10 -22 15 -17 6 -19 9 -6
9 25 1 39 32 26 56 -9 17 -8 18 3 7 7 -6 16 -12 20 -12 13 0 18 29 7 36 -7 5
-8 2 -3 -6 5 -9 4 -11 -3 -6 -9 5 -7 14 5 31 10 14 21 25 26 25 4 0 7 7 7 16
0 9 -5 12 -12 8 -6 -4 -3 4 8 18 10 14 23 24 27 21 5 -3 4 4 -2 16 -8 14 -9
27 -2 40 6 10 7 22 3 27 -4 5 0 3 10 -4 12 -10 18 -10 24 -1 4 8 3 9 -4 5 -18
-11 -14 10 3 24 14 12 14 15 0 30 -14 15 -14 20 -2 31 7 8 13 24 12 37 -1 20
6 26 27 23 3 0 5 11 3 25 -1 14 4 32 12 40 8 8 10 14 4 14 -5 0 15 47 44 104
49 95 54 109 49 153 -8 64 48 348 132 682 35 140 64 264 64 276 0 12 -6 27
-13 34 -11 8 -20 -3 -44 -52 -45 -90 -105 -220 -107 -232 -1 -5 -6 -17 -11
-25 -5 -8 -29 -55 -53 -104 -24 -48 -50 -95 -58 -103 -8 -8 -12 -18 -9 -23 3
-4 -2 -10 -10 -14 -8 -3 -15 -12 -15 -19 0 -8 -7 -20 -16 -28 -8 -7 -13 -21
-11 -31 3 -10 2 -16 -2 -13 -7 4 -46 -63 -44 -75 4 -15 -58 -8 -99 11 -53 25
-60 45 -28 74 11 10 20 24 20 31 0 7 6 17 13 21 8 4 22 22 33 38 10 17 21 32
24 35 11 10 88 117 123 170 19 30 72 105 117 165 45 61 84 117 88 125 3 8 19
25 35 39 22 18 25 26 15 32 -25 16 -35 9 -114 -78z m-364 -693 c12 -7 12 -10
1 -10 -7 0 -11 -6 -8 -14 5 -11 1 -11 -24 1 -30 15 -31 33 -1 33 9 0 24 -5 32
-10z m-90 -156 c22 -9 40 -20 40 -25 0 -12 -2 -12 -54 11 -71 30 -59 43 14 14z
m-230 -1627 c0 -2 -8 -3 -18 -3 -10 0 -19 6 -19 13 0 8 6 9 19 2 10 -5 18 -11
18 -12z"/>
<path d="M9670 2539 c0 -5 5 -7 10 -4 6 3 10 8 10 11 0 2 -4 4 -10 4 -5 0 -10
-5 -10 -11z"/>
<path d="M9753 2351 c1 -11 6 -17 14 -14 10 4 11 9 2 19 -15 19 -18 18 -16 -5z"/>
<path d="M9865 2150 c-3 -5 -2 -10 4 -10 5 0 13 5 16 10 3 6 2 10 -4 10 -5 0
-13 -4 -16 -10z"/>
<path d="M5694 1819 c-9 -14 -18 -6 227 -194 50 -38 137 -108 193 -155 56 -47
132 -109 169 -139 37 -29 72 -61 77 -71 9 -17 7 -17 -28 -5 -83 29 -118 39
-142 40 -14 1 -36 5 -50 10 -14 5 -38 8 -54 6 -15 -1 -34 4 -42 10 -7 6 -18 8
-24 4 -5 -3 -16 -3 -22 1 -17 11 -48 12 -48 3 0 -9 -27 -5 -37 6 -4 4 -2 5 6
0 10 -6 12 -4 7 4 -6 9 -11 9 -22 0 -7 -6 -21 -9 -29 -5 -8 3 -15 0 -15 -7 0
-9 -3 -8 -9 1 -7 11 -11 11 -23 -2 -11 -11 -18 -12 -27 -3 -6 6 -12 8 -12 4
-3 -13 -6 -27 -8 -29 -2 -2 -4 -15 -6 -31 -3 -19 0 -25 8 -20 7 4 6 0 -2 -10
-7 -9 -18 -14 -25 -11 -6 3 -3 -1 6 -9 10 -8 15 -17 11 -21 -4 -4 1 -4 11 0
13 5 17 4 12 -4 -3 -6 -2 -13 3 -17 6 -3 7 -13 4 -22 -5 -13 -2 -15 12 -9 11
4 16 4 12 0 -4 -4 3 -18 15 -31 12 -13 18 -23 14 -23 -4 0 0 -7 8 -16 9 -8 13
-20 10 -26 -4 -6 -2 -8 4 -5 13 9 42 -2 42 -15 0 -5 -4 -7 -9 -4 -5 3 -12 -1
-15 -10 -3 -8 -2 -12 4 -9 6 3 10 1 10 -5 0 -8 6 -7 21 1 15 8 19 8 15 0 -4
-6 -2 -11 5 -11 9 0 9 -3 0 -14 -10 -12 -8 -15 11 -18 13 -2 22 -9 20 -16 -1
-7 5 -15 13 -18 8 -4 15 -12 15 -20 0 -8 5 -14 11 -14 5 0 7 4 4 10 -3 6 1 7
9 4 12 -4 13 -11 6 -24 -10 -18 -4 -30 14 -30 6 0 4 5 -4 10 -10 6 -11 10 -3
10 7 0 20 -11 29 -25 9 -14 23 -25 31 -25 8 0 20 -14 27 -30 7 -17 15 -27 19
-23 4 3 7 0 7 -9 0 -19 44 -60 61 -56 8 2 13 -1 13 -7 -1 -5 7 -19 19 -30 11
-11 17 -14 13 -7 -4 6 -5 12 -2 12 3 0 13 -16 22 -36 11 -23 22 -33 31 -30 8
3 11 1 8 -4 -5 -9 6 -14 26 -12 3 1 4 -11 1 -25 -3 -18 -1 -24 7 -19 6 4 11 2
11 -5 0 -8 4 -8 15 1 13 11 14 10 9 -5 -5 -13 -4 -16 4 -11 12 7 16 -5 12 -33
-1 -9 4 -12 14 -8 9 4 15 3 15 -1 -3 -20 2 -33 11 -27 6 3 10 0 10 -7 0 -8 14
-22 30 -31 17 -10 30 -23 30 -28 0 -6 4 -8 9 -4 5 3 12 1 16 -5 3 -5 1 -10 -5
-10 -7 0 -6 -5 2 -14 9 -10 17 -11 26 -4 9 8 12 6 12 -6 0 -9 6 -16 14 -16 7
0 20 -8 27 -17 13 -17 13 -17 -6 -3 -19 14 -19 14 -6 -3 9 -12 17 -14 26 -7
13 11 25 4 25 -14 0 -6 -5 -4 -11 4 -9 13 -10 13 -6 0 2 -9 14 -14 30 -13 18
1 27 -3 27 -13 0 -9 -5 -12 -12 -8 -8 5 -7 0 2 -11 13 -16 15 -16 18 -2 2 10
8 17 13 17 6 0 7 -5 4 -11 -4 -6 3 -13 15 -16 15 -4 18 -8 10 -13 -7 -4 -9
-13 -5 -19 4 -8 11 -9 19 -2 8 7 16 4 24 -10 7 -11 17 -17 21 -14 5 3 12 -1
14 -7 4 -10 6 -10 6 0 1 6 5 12 11 12 5 0 7 -7 4 -15 -4 -10 0 -15 11 -15 9 0
14 -4 10 -9 -3 -5 -1 -12 5 -16 6 -4 7 -12 4 -18 -4 -7 -4 -9 1 -5 4 4 15 2
24 -4 9 -7 5 0 -8 15 -19 21 -21 27 -9 27 9 0 19 -7 22 -16 3 -8 10 -13 15 -9
5 3 13 0 17 -6 4 -8 3 -9 -4 -5 -7 4 -12 2 -12 -3 0 -6 9 -11 21 -11 11 0 18
4 15 8 -3 5 1 9 8 9 7 0 13 -6 13 -13 0 -7 -4 -11 -8 -8 -4 2 -11 -1 -15 -7
-5 -8 1 -10 18 -7 16 3 25 0 26 -9 1 -7 3 -20 4 -27 1 -8 4 -15 7 -14 18 2 24
-3 12 -11 -9 -6 2 -9 30 -8 24 0 47 5 51 11 5 8 8 7 8 -1 0 -10 281 -13 1369
-13 1228 0 1369 2 1375 16 3 8 2 13 -3 10 -16 -10 -20 22 -5 35 12 10 13 9 8
-4 -4 -11 0 -15 13 -13 9 2 26 -8 36 -21 18 -22 23 -23 178 -23 l159 0 0 615
0 615 -132 -66 c-145 -73 -428 -211 -748 -365 -113 -55 -213 -103 -222 -109
-53 -30 -157 -80 -167 -80 -12 0 -51 20 -364 188 -114 62 -214 112 -221 112
-8 0 -16 4 -18 8 -1 5 -43 29 -93 54 -380 192 -588 307 -620 343 -34 38 -100
62 -122 43 -10 -8 -13 -6 -13 10 0 23 -51 59 -96 67 -26 5 -37 -2 -92 -59 -49
-50 -67 -63 -84 -58 -16 4 -19 2 -13 -9 8 -12 6 -12 -8 0 -9 7 -17 10 -17 5 0
-5 -7 -1 -14 9 -11 14 -11 24 -2 49 13 35 59 62 124 73 43 7 43 7 25 27 -10
12 -38 30 -62 41 -43 19 -44 19 -54 1 -5 -11 -36 -45 -68 -77 -51 -52 -60 -57
-78 -47 -16 8 -21 8 -21 -1 0 -7 -8 -4 -19 7 -31 32 -12 73 54 114 22 14 44
18 78 15 83 -7 66 6 -136 101 -52 24 -60 25 -73 12 -14 -13 -11 -17 21 -32 20
-10 44 -18 55 -19 16 -1 17 -4 7 -23 -7 -12 -29 -36 -50 -52 -29 -24 -45 -29
-74 -27 -21 2 -39 8 -41 14 -2 5 -10 7 -18 4 -9 -3 -14 2 -14 16 0 28 -14 27
-34 -4 -28 -43 -48 -47 -112 -24 -33 11 -69 22 -82 25 -12 2 -46 14 -75 25
-28 11 -53 20 -54 20 -2 0 -22 8 -45 18 -24 10 -70 26 -103 35 -33 10 -67 21
-75 25 -8 4 -115 40 -238 81 -122 40 -221 75 -218 77 2 2 93 -17 202 -42 110
-26 231 -53 269 -61 89 -19 106 -23 130 -29 11 -3 74 -16 140 -30 219 -45 266
-57 280 -71 12 -12 18 -10 42 10 l28 24 -25 6 c-61 14 -189 39 -365 72 -104
19 -206 39 -225 44 -19 5 -120 25 -225 44 -225 43 -233 44 -265 51 -58 13 -99
14 -106 4z m1820 -476 c7 -16 -11 -41 -69 -94 -16 -15 -32 -23 -34 -17 -2 6
-7 5 -12 -3 -6 -10 -9 -10 -9 -2 0 7 -6 10 -13 7 -8 -3 -19 2 -26 10 -25 30
46 117 84 103 8 -4 16 -3 19 1 9 15 54 12 60 -5z m102 -82 c-3 -5 1 -12 10
-15 10 -4 13 -2 8 7 -5 8 -2 8 9 -2 9 -7 14 -18 10 -25 -3 -6 0 -6 8 2 16 14
33 16 24 2 -6 -9 1 -12 22 -9 4 0 10 -9 15 -20 4 -12 12 -21 18 -21 6 0 8 6 5
13 -4 6 1 3 10 -8 9 -11 19 -20 23 -20 4 0 6 -4 4 -8 -1 -4 7 -3 19 4 15 8 19
8 15 0 -4 -6 0 -11 8 -11 9 0 16 -5 16 -11 0 -8 5 -7 15 1 13 11 14 10 9 -4
-4 -10 -1 -16 9 -16 8 0 20 -7 27 -15 10 -12 16 -13 28 -3 13 11 14 11 7 -1
-6 -11 -4 -13 9 -8 14 6 17 3 12 -8 -3 -9 -2 -13 4 -10 6 3 10 0 10 -7 0 -9 3
-9 10 2 8 13 10 13 10 -2 0 -19 40 -34 64 -25 10 4 13 1 9 -9 -5 -12 7 -19 30
-15 4 0 7 -6 7 -15 0 -11 6 -15 19 -11 12 3 22 -1 25 -10 4 -8 12 -13 20 -10
8 3 13 -1 12 -11 -1 -11 8 -18 22 -20 12 -2 20 -7 17 -12 -3 -4 4 -6 15 -3 11
3 20 1 20 -4 0 -5 7 -10 15 -11 8 -1 21 -3 29 -4 8 -1 12 -7 9 -14 -7 -18 18
-29 28 -13 8 12 13 6 11 -13 -1 -3 5 -9 14 -12 10 -4 13 -2 8 7 -4 6 2 3 14
-7 12 -11 22 -15 22 -10 1 5 7 -2 15 -16 8 -14 14 -21 15 -16 0 4 11 1 25 -8
14 -9 25 -13 25 -9 0 5 4 2 9 -6 5 -8 21 -15 35 -17 14 -1 37 -15 52 -31 14
-15 23 -22 19 -15 -6 11 -3 11 13 1 12 -7 18 -18 14 -24 -3 -5 1 -4 10 3 14
11 18 10 28 -9 10 -17 14 -19 21 -8 5 8 9 9 9 4 0 -6 17 -18 38 -28 43 -20 75
-39 82 -49 3 -4 16 -9 29 -11 13 -2 30 -12 37 -22 14 -18 14 -18 14 1 1 18 1
18 11 2 5 -10 17 -18 25 -18 8 0 13 -4 10 -9 -3 -4 4 -17 17 -27 12 -11 16
-12 10 -4 -10 13 -8 16 6 16 12 0 17 -5 13 -15 -4 -10 -1 -13 10 -8 12 4 15 0
13 -19 -1 -13 2 -24 6 -24 5 0 9 7 9 16 0 14 2 15 17 3 11 -10 14 -10 9 -1 -4
6 -5 12 -2 12 3 0 10 -10 17 -21 8 -16 8 -23 -1 -29 -6 -4 9 -7 34 -7 35 0 51
-5 65 -22 11 -12 21 -22 23 -21 2 1 17 -4 33 -11 17 -7 35 -11 40 -10 6 2 7
-1 3 -5 -4 -4 0 -13 10 -20 13 -9 19 -9 24 -1 6 9 8 9 8 0 0 -7 7 -13 15 -13
8 0 15 -5 15 -11 0 -5 5 -7 12 -3 8 5 9 2 5 -10 -5 -13 -2 -15 18 -12 18 3 23
1 18 -7 -13 -21 -11 -36 4 -30 12 5 12 7 1 14 -9 6 -7 9 9 9 16 0 21 -4 17
-15 -5 -11 -2 -13 10 -9 9 3 16 11 16 17 0 6 3 7 6 4 4 -4 2 -13 -5 -21 -10
-12 -6 -14 24 -11 29 3 35 0 35 -15 0 -10 5 -22 10 -25 6 -4 8 -11 5 -16 -3
-5 1 -6 9 -3 9 3 16 1 16 -6 0 -6 5 -8 11 -4 8 4 2 12 -15 21 -14 7 -26 16
-26 19 0 3 16 -3 36 -15 19 -12 32 -17 29 -11 -3 5 -1 10 4 10 6 0 11 -5 11
-11 0 -5 4 -7 10 -4 6 4 7 -1 3 -11 -4 -12 -3 -15 5 -10 7 4 12 2 12 -5 0 -8
4 -9 13 0 11 8 14 7 14 -7 0 -9 -4 -22 -9 -28 -5 -8 -1 -11 14 -10 13 0 26 6
30 11 5 6 8 5 8 -3 0 -7 5 -10 11 -6 6 3 4 -5 -6 -19 -23 -35 -46 -42 -52 -16
-3 11 -9 16 -12 10 -4 -5 -14 4 -24 21 -17 29 -17 30 0 24 14 -6 15 -5 6 5
-10 10 -16 9 -31 -4 -23 -21 -74 -18 -80 5 -2 9 -11 15 -21 13 -20 -4 -53 29
-43 42 4 4 -4 -1 -17 -12 -14 -11 -21 -15 -18 -8 4 6 3 14 -3 18 -6 4 -7 12
-3 18 4 8 1 7 -9 -1 -9 -7 -18 -9 -20 -4 -1 5 -16 12 -31 16 -21 5 -27 4 -21
-5 4 -8 3 -9 -5 -5 -9 6 -9 11 1 24 8 10 9 13 1 9 -7 -4 -17 0 -23 10 -9 13
-10 14 -7 2 3 -9 -1 -16 -9 -16 -7 0 -11 4 -8 9 3 4 -2 8 -10 8 -9 0 -16 4
-16 10 0 5 -10 14 -21 21 -15 8 -19 8 -15 0 4 -6 5 -11 2 -11 -3 0 -12 15 -20
33 -8 17 -15 26 -15 19 -1 -7 -6 -10 -13 -6 -7 4 -8 3 -4 -5 4 -6 12 -9 17 -6
5 4 9 1 9 -4 0 -13 -3 -13 -24 -5 -9 3 -16 12 -16 19 0 8 -10 12 -25 10 -19
-2 -23 1 -15 10 8 10 6 13 -7 11 -10 0 -17 5 -15 12 1 8 -2 11 -8 7 -5 -3 -11
2 -11 12 -1 17 -2 17 -6 1 -5 -21 -19 -23 -29 -6 -5 7 -3 8 6 3 8 -5 11 -4 6
3 -4 6 -13 9 -20 6 -7 -3 -16 2 -20 12 -5 13 -9 14 -21 4 -12 -10 -15 -9 -15
4 0 10 -4 15 -9 12 -4 -3 -14 7 -21 22 -11 24 -14 25 -23 10 -10 -15 -12 -15
-29 4 -10 12 -18 16 -18 9 0 -7 -5 -9 -10 -6 -6 4 -7 12 -4 18 5 8 3 8 -7 0
-16 -16 -29 -17 -29 -2 0 5 6 7 13 3 8 -5 8 -2 -2 9 -15 18 -26 23 -16 7 3 -5
1 -10 -4 -10 -6 0 -11 7 -11 16 0 14 -3 14 -15 4 -12 -10 -15 -10 -15 0 0 7
-7 10 -17 6 -15 -6 -14 -4 2 16 11 13 13 17 5 10 -21 -18 -40 -15 -50 11 -9
22 -9 22 -10 -3 -1 -20 -3 -21 -8 -8 -4 10 -23 27 -42 37 -19 11 -34 24 -32
30 1 7 -5 7 -18 -1 -17 -11 -22 -10 -29 1 -5 7 -14 11 -20 7 -7 -5 -8 -1 -4
11 6 15 4 16 -9 6 -18 -16 -32 -5 -17 13 8 10 6 12 -10 9 -23 -4 -81 15 -81
28 0 4 5 5 12 1 6 -4 8 -3 5 4 -4 5 -18 9 -32 8 -13 -2 -22 0 -20 5 3 4 -3 8
-12 8 -39 1 -52 5 -47 13 3 5 10 5 16 2 7 -4 8 -2 4 5 -4 6 -11 9 -16 6 -5 -3
-12 0 -15 6 -4 5 -14 8 -22 5 -9 -4 -11 -2 -7 6 5 8 2 9 -11 4 -15 -5 -16 -4
-6 8 10 11 9 14 -1 12 -7 -1 -19 -5 -26 -9 -7 -5 -14 -2 -18 7 -5 12 -28 22
-74 31 -18 3 -70 37 -70 45 0 6 -11 10 -24 10 -14 0 -28 5 -32 12 -5 7 -3 8 7
3 12 -8 12 -6 0 8 -15 18 -26 23 -16 7 7 -12 3 -12 -19 -4 -9 3 -13 11 -9 17
4 6 0 8 -10 4 -11 -4 -17 -1 -17 8 0 8 -5 15 -11 15 -5 0 -7 -4 -4 -10 3 -6
-1 -7 -9 -4 -9 3 -16 10 -16 16 0 5 -5 6 -10 3 -6 -4 -9 -1 -8 7 2 7 -5 12
-14 12 -10 -1 -15 3 -12 8 4 6 1 9 -7 6 -13 -4 -20 0 -52 28 -7 6 -18 9 -25 6
-7 -2 -11 2 -10 10 2 8 -4 12 -16 10 -10 -2 -15 1 -12 7 4 5 2 12 -4 16 -5 3
-10 1 -10 -5 0 -5 -18 1 -40 15 -23 14 -44 23 -49 21 -5 -3 -17 4 -27 15 -24
27 -60 47 -48 27 6 -10 5 -11 -8 -1 -8 7 -18 10 -21 6 -4 -3 -7 2 -7 13 0 10
-4 15 -8 9 -9 -13 -35 -18 -27 -5 3 5 2 10 -4 10 -18 0 0 34 36 68 31 28 93
47 79 23z m-1426 -505 c0 -3 -4 -8 -10 -11 -5 -3 -10 -1 -10 4 0 6 5 11 10 11
6 0 10 -2 10 -4z m2734 -292 c3 -8 2 -12 -4 -9 -6 3 -10 10 -10 16 0 14 7 11
14 -7z m-2109 -272 c-3 -3 -11 0 -18 7 -9 10 -8 11 6 5 10 -3 15 -9 12 -12z
m2785 -62 c6 -11 8 -20 6 -20 -3 0 -10 9 -16 20 -6 11 -8 20 -6 20 3 0 10 -9
16 -20z m135 -12 c-1 -13 -3 -27 -4 -32 0 -5 -7 -3 -14 3 -10 8 -14 7 -14 -4
0 -8 5 -11 10 -8 6 3 7 1 3 -6 -8 -13 -26 -5 -26 11 0 10 38 58 45 58 1 0 1
-10 0 -22z m40 -17 c3 -5 1 -12 -5 -16 -5 -3 -10 -14 -10 -23 0 -13 2 -13 16
4 14 17 15 17 10 1 -4 -11 -2 -16 5 -12 6 4 8 13 5 21 -3 7 -1 16 3 19 5 3 12
-2 15 -11 3 -8 11 -12 17 -8 8 5 9 2 1 -12 -7 -12 -7 -25 -1 -36 8 -15 6 -17
-13 -14 -13 1 -21 7 -19 12 1 5 6 8 10 7 4 -1 8 7 8 18 2 18 -1 17 -19 -6 -14
-19 -23 -23 -32 -15 -7 5 -17 6 -21 2 -5 -4 -5 1 -2 11 7 20 -3 22 -22 5 -11
-11 -11 -9 0 9 7 12 17 19 23 16 5 -3 6 -1 2 5 -8 13 0 32 14 32 5 0 11 -4 15
-9z m-2732 -54 c7 3 9 3 5 -2 -4 -4 -2 -15 5 -23 9 -11 5 -11 -15 2 -15 10
-25 23 -21 29 5 8 8 7 11 -1 2 -7 9 -9 15 -5z"/>
<path d="M7620 1128 c0 -3 6 -11 14 -17 10 -9 17 -7 27 6 12 16 12 17 -2 6
-12 -10 -18 -10 -27 -1 -7 7 -12 9 -12 6z"/>
<path d="M8845 590 c-3 -5 -1 -10 4 -10 6 0 11 5 11 10 0 6 -2 10 -4 10 -3 0
-8 -4 -11 -10z"/>
<path d="M9245 321 c-3 -5 -2 -12 3 -15 5 -3 9 1 9 9 0 17 -3 19 -12 6z"/>
<path d="M9335 260 c-3 -5 -1 -10 4 -10 6 0 11 5 11 10 0 6 -2 10 -4 10 -3 0
-8 -4 -11 -10z"/>
<path d="M9463 253 c4 -3 1 -13 -6 -22 -11 -14 -10 -14 6 -2 20 15 22 31 5 31
-6 0 -8 -3 -5 -7z"/>
<path d="M9664 108 l-19 -23 23 19 c12 11 22 21 22 23 0 8 -8 2 -26 -19z"/>
<path d="M5752 1265 c0 -16 2 -22 5 -12 2 9 2 23 0 30 -3 6 -5 -1 -5 -18z"/>
<path d="M1584 1129 c-3 -6 -1 -16 4 -21 8 -8 11 -5 9 11 -1 24 -3 25 -13 10z"/>
<path d="M5820 1110 c0 -5 5 -10 11 -10 5 0 7 5 4 10 -3 6 -8 10 -11 10 -2 0
-4 -4 -4 -10z"/>
<path d="M1539 993 c-13 -16 -12 -17 4 -4 16 13 21 21 13 21 -2 0 -10 -8 -17
-17z"/>
<path d="M6096 798 c3 -4 9 -8 15 -8 5 0 9 4 9 8 0 5 -7 9 -15 9 -8 0 -12 -4
-9 -9z"/>
<path d="M6245 630 c-3 -6 1 -7 9 -4 18 7 21 14 7 14 -6 0 -13 -4 -16 -10z"/>
<path d="M6389 493 c-13 -16 -12 -17 4 -4 9 7 17 15 17 17 0 8 -8 3 -21 -13z"/>
<path d="M1301 486 c-7 -8 -8 -17 -3 -20 6 -3 13 1 16 10 9 23 2 28 -13 10z"/>
<path d="M1120 146 c0 -9 5 -16 10 -16 6 0 10 4 10 9 0 6 -4 13 -10 16 -5 3
-10 -1 -10 -9z"/>
<path d="M6975 50 c-3 -5 -1 -10 4 -10 6 0 11 5 11 10 0 6 -2 10 -4 10 -3 0
-8 -4 -11 -10z"/>
<path d="M9870 26 c0 -2 7 -9 15 -16 13 -11 14 -10 9 4 -5 14 -24 23 -24 12z"/>
</g>
</svg>
